<svg width="140" height="140" viewBox="0 0 140 140" fill="none" xmlns="http://www.w3.org/2000/svg">
<circle cx="70" cy="70" r="70" fill="#56C4CF"/>
<g clip-path="url(#clip0_349_8454)">
<rect width="67" height="67" transform="translate(37 36)" fill="#56C4CF"/>
<path d="M62.8114 79.135L61.7834 85.2406C61.6433 86.0753 61.9858 86.9165 62.6691 87.4147C63.3536 87.9117 64.2624 87.9783 65.0101 87.5864L70.4995 84.721L75.9888 87.587C76.3136 87.7555 76.6695 87.8404 77.0216 87.8404C77.4827 87.8404 77.9428 87.696 78.3309 87.4152C79.0148 86.9171 79.3583 86.0759 79.2172 85.2412L78.1903 79.1356L82.6103 74.7998C83.2147 74.2077 83.43 73.3241 83.1707 72.52C82.9104 71.7164 82.2136 71.1281 81.3773 71.0046L75.2523 70.0963L72.4937 64.5517C72.1195 63.7948 71.3444 63.3154 70.4989 63.3154C69.6551 63.3154 68.8805 63.7948 68.5031 64.5517L65.7472 70.0963L59.6222 71.0041C58.7843 71.1275 58.0907 71.7159 57.8298 72.5195C57.569 73.3236 57.7837 74.2082 58.3892 74.7993L62.8114 79.135Z" fill="#261A54"/>
<path d="M96.8229 43.1228H89.8096V39.2326C89.8096 37.4472 88.3624 36 86.5764 36H86.0638C84.2784 36 82.8317 37.4472 82.8317 39.2326V43.1228H58.0867V39.2326C58.0867 37.4472 56.6394 36 54.8546 36H54.3414C52.556 36 51.1093 37.4472 51.1093 39.2326V43.1228H44.1776C40.5096 43.1228 37.5244 46.1069 37.5244 49.776V96.3474C37.5244 100.014 40.5096 103.001 44.1776 103.001H96.8234C100.491 103.001 103.477 100.015 103.477 96.3474V49.776C103.476 46.1069 100.49 43.1228 96.8229 43.1228ZM95.9549 95.4794H45.0456V59.2264H95.9549V95.4794Z" fill="#261A54"/>
</g>
<defs>
<clipPath id="clip0_349_8454">
<rect width="67" height="67" fill="white" transform="translate(37 36)"/>
</clipPath>
</defs>
</svg>
