<svg width="22" height="21" viewBox="0 0 22 21" fill="none" xmlns="http://www.w3.org/2000/svg">
<path fill-rule="evenodd" clip-rule="evenodd" d="M0.802186 0.929768C0.782276 0.323413 0.802186 0.197453 0.935881 0.0802842C1.07242 -0.039815 1.24025 -0.0251702 1.48773 0.124223C1.7921 0.308766 4.84149 2.03702 5.8769 2.61115L6.31211 2.85137L6.72175 2.67268C8.62475 1.83199 10.8634 1.62107 13.0509 2.07218C13.7734 2.22157 14.3111 2.3944 14.9113 2.66682C15.2754 2.83379 15.3152 2.84551 15.392 2.81328C15.5342 2.75176 17.4059 1.70602 18.7543 0.932698C19.0718 0.750736 19.3784 0.574708 19.6282 0.431333C19.9332 0.256195 20.1534 0.129781 20.205 0.10079C20.4895 -0.0603203 20.7085 -0.0134514 20.8052 0.226747C20.8536 0.346846 20.8593 1.10845 20.8166 1.55957C20.7085 2.69026 20.3444 4.11094 19.8238 5.4496C19.8049 5.498 19.7876 5.54098 19.7721 5.57954C19.7047 5.74706 19.671 5.8306 19.6825 5.90762C19.6938 5.98412 19.7496 6.05423 19.8608 6.19401C19.8863 6.22606 19.9147 6.26176 19.9461 6.30202C20.7398 7.31262 21.2603 8.44331 21.4993 9.67066C21.6132 10.2536 21.6415 10.57 21.6415 11.2144C21.6415 12.5355 21.3571 13.754 20.7995 14.7998C20.4752 15.412 20.1851 15.8075 19.6674 16.3347C18.7031 17.319 17.6221 17.9429 15.4972 18.7426C13.3894 19.5364 11.1934 20.2453 10.8378 20.2453C10.5875 20.2453 9.54356 19.9348 7.97334 19.3899C5.21697 18.4379 3.95113 17.8697 2.91 17.1256C2.15621 16.5837 1.49626 15.8778 1.02406 15.1015C0.207672 13.754 -0.156434 11.9233 0.0625981 10.2419C0.264563 8.69522 0.859077 7.31848 1.83477 6.13213C1.91726 6.0296 1.98552 5.92415 1.98552 5.89779C1.98552 5.86849 1.90872 5.6488 1.81485 5.4086C1.46497 4.51811 1.17482 3.53387 1.00415 2.65509C0.8733 1.98137 0.822098 1.55663 0.802186 0.929768ZM8.22936 7.18959C7.67183 6.75898 6.9237 6.44849 6.24669 6.3606C5.02637 6.20535 3.72924 6.73556 2.87588 7.74028C2.05094 8.7128 1.61289 10.1013 1.72667 11.3784C1.8433 12.7288 2.36669 13.8302 3.29403 14.6943C4.54848 15.8573 6.3235 16.1853 7.94774 15.5526L8.17815 15.4647L8.9149 16.2234C9.31883 16.6394 9.85076 17.1666 10.0926 17.3922C10.1272 17.4243 10.1602 17.4549 10.1916 17.4841L10.1922 17.4847C10.5619 17.8283 10.7151 17.9707 10.8542 17.9584C10.9526 17.9497 11.044 17.8637 11.1999 17.7168C11.2194 17.6984 11.24 17.679 11.2617 17.6587C11.8476 17.1168 12.647 16.3201 13.0424 15.8924C13.2557 15.661 13.4463 15.4706 13.4662 15.4706C13.4833 15.4706 13.6198 15.5175 13.7649 15.576C14.513 15.8748 15.4859 15.951 16.2795 15.7782C17.0475 15.6112 17.8611 15.1777 18.4186 14.6387C19.1667 13.921 19.656 12.9954 19.8694 11.9116C19.949 11.5015 19.9405 10.4411 19.8523 10.0251C19.7186 9.37482 19.4711 8.75089 19.161 8.26169C18.1967 6.75898 16.5128 6.0384 14.9141 6.45143C14.1631 6.64474 13.5032 7.0402 12.8945 7.66412C12.2431 8.332 11.8818 8.89441 11.1394 10.403L10.9317 10.8277H10.8179H10.7041L10.4254 10.2565C9.90197 9.18149 9.61182 8.68644 9.21074 8.17967C8.95188 7.84867 8.50812 7.40342 8.22936 7.18959ZM4.14167 10.6813C4.27251 9.6151 4.96943 8.83005 5.9821 8.60744C6.67333 8.45219 7.40438 8.67775 7.94769 9.21086C8.41989 9.67075 8.65031 10.2273 8.65314 10.9157C8.656 11.4225 8.53652 11.8443 8.28335 12.2368C7.4755 13.4905 5.79436 13.6575 4.76747 12.5883C4.3038 12.105 4.05917 11.3609 4.14167 10.6813ZM7.5267 10.4324C7.51248 10.2215 7.41291 10.0545 7.24224 9.9549C6.61644 9.58288 5.99916 10.4089 6.50834 10.9333C6.71315 11.1442 6.9265 11.1881 7.17682 11.0651C7.43282 10.942 7.54945 10.737 7.5267 10.4324ZM14.8859 8.58967C13.7537 8.80644 12.9942 9.74672 12.9942 10.9302C12.9942 11.5863 13.2218 12.1399 13.6911 12.6203C13.9187 12.8517 13.9898 12.9074 14.2487 13.0363C14.4108 13.1154 14.6241 13.2032 14.7237 13.2296C15.7307 13.4903 16.8059 12.9806 17.2781 12.014C17.4431 11.6742 17.4943 11.4662 17.5085 11.0561C17.5256 10.6138 17.4972 10.4175 17.372 10.0748C17.1387 9.4538 16.5812 8.89725 15.981 8.68633C15.6226 8.56331 15.2215 8.52816 14.8859 8.58967ZM15.0793 9.98107C15.4007 10.2154 15.4149 10.7251 15.1106 10.9829C14.8972 11.1645 14.6327 11.1733 14.3966 11.0092C14.2032 10.8745 14.1235 10.7075 14.1377 10.4556C14.1463 10.2945 14.1633 10.2359 14.2316 10.1334C14.4279 9.84632 14.8005 9.78188 15.0793 9.98107ZM10.5192 12.4975C10.633 12.3188 10.7382 12.1665 10.7581 12.1547C10.8492 12.0932 10.889 12.1313 11.1735 12.5707C11.4551 13.0072 11.694 13.3294 12.0155 13.7014C12.1463 13.8537 12.2544 13.9855 12.2544 13.9972C12.2544 14.0353 11.7168 15.1367 11.5433 15.456C11.3242 15.8544 11.0312 16.3201 10.9431 16.4022C10.8606 16.4842 10.7724 16.4842 10.6984 16.3992C10.6216 16.3172 10.2575 15.7343 10.084 15.4209C9.85927 15.0166 9.40984 14.0705 9.40984 14.006C9.40984 13.9679 9.49231 13.8508 9.6118 13.719C9.86212 13.4378 10.2461 12.9222 10.5192 12.4975Z" fill="#261A54"/>
</svg>
