<svg width="20" height="20" viewBox="0 0 20 20" fill="none" xmlns="http://www.w3.org/2000/svg">
<path d="M17.4114 1.17676H15.6467V2.94146C15.6467 3.2944 15.3526 3.5297 15.0585 3.5297C14.7644 3.5297 14.4702 3.2944 14.4702 2.94146V1.17676H5.05848V2.94146C5.05848 3.2944 4.76436 3.5297 4.47024 3.5297C4.17613 3.5297 3.88201 3.2944 3.88201 2.94146V1.17676H2.1173C1.23495 1.17676 0.587891 1.94146 0.587891 2.94146V5.05911H19.4114V2.94146C19.4114 1.94146 18.3526 1.17676 17.4114 1.17676ZM0.587891 6.2944V17.0591C0.587891 18.1179 1.23495 18.8238 2.17613 18.8238H17.4702C18.4114 18.8238 19.4702 18.0591 19.4702 17.0591V6.2944H0.587891ZM5.82318 16.1768H4.41142C4.17613 16.1768 3.94083 16.0003 3.94083 15.7062V14.2356C3.94083 14.0003 4.1173 13.765 4.41142 13.765H5.88201C6.1173 13.765 6.3526 13.9415 6.3526 14.2356V15.7062C6.29377 16.0003 6.1173 16.1768 5.82318 16.1768ZM5.82318 10.8826H4.41142C4.17613 10.8826 3.94083 10.7062 3.94083 10.4121V8.94146C3.94083 8.70617 4.1173 8.47087 4.41142 8.47087H5.88201C6.1173 8.47087 6.3526 8.64735 6.3526 8.94146V10.4121C6.29377 10.7062 6.1173 10.8826 5.82318 10.8826ZM10.5291 16.1768H9.05848C8.82318 16.1768 8.58789 16.0003 8.58789 15.7062V14.2356C8.58789 14.0003 8.76436 13.765 9.05848 13.765H10.5291C10.7644 13.765 10.9997 13.9415 10.9997 14.2356V15.7062C10.9997 16.0003 10.8232 16.1768 10.5291 16.1768ZM10.5291 10.8826H9.05848C8.82318 10.8826 8.58789 10.7062 8.58789 10.4121V8.94146C8.58789 8.70617 8.76436 8.47087 9.05848 8.47087H10.5291C10.7644 8.47087 10.9997 8.64735 10.9997 8.94146V10.4121C10.9997 10.7062 10.8232 10.8826 10.5291 10.8826ZM15.235 16.1768H13.7644C13.5291 16.1768 13.2938 16.0003 13.2938 15.7062V14.2356C13.2938 14.0003 13.4702 13.765 13.7644 13.765H15.235C15.4702 13.765 15.7055 13.9415 15.7055 14.2356V15.7062C15.7055 16.0003 15.5291 16.1768 15.235 16.1768ZM15.235 10.8826H13.7644C13.5291 10.8826 13.2938 10.7062 13.2938 10.4121V8.94146C13.2938 8.70617 13.4702 8.47087 13.7644 8.47087H15.235C15.4702 8.47087 15.7055 8.64735 15.7055 8.94146V10.4121C15.7055 10.7062 15.5291 10.8826 15.235 10.8826Z" fill="white"/>
</svg>
