<svg width="126" height="52" viewBox="0 0 126 52" fill="none" xmlns="http://www.w3.org/2000/svg">
<rect width="126" height="52" rx="26" fill="#261A54"/>
<mask id="path-2-outside-1_377_6295" maskUnits="userSpaceOnUse" x="12.6488" y="12.988" width="37.5994" height="31.0111" fill="black">
<rect fill="white" x="12.6488" y="12.988" width="37.5994" height="31.0111"/>
<path fill-rule="evenodd" clip-rule="evenodd" d="M39.7312 19.5348C43.6332 20.0642 46.5783 23.8859 46.428 28.4184C46.272 33.1215 42.8424 36.8414 38.7121 36.8554C36.6811 38.0751 34.2256 38.8558 31.5513 39.009C27.5495 39.2382 23.8742 38.0156 21.2815 35.8898C18.3256 34.6055 16.2837 31.3083 16.4084 27.5161C16.5516 23.1619 19.505 19.6483 23.2205 19.1419C25.2342 17.9523 27.6573 17.1919 30.293 17.0409C33.8842 16.8352 37.2123 17.7987 39.7312 19.5348Z"/>
</mask>
<path fill-rule="evenodd" clip-rule="evenodd" d="M39.7312 19.5348C43.6332 20.0642 46.5783 23.8859 46.428 28.4184C46.272 33.1215 42.8424 36.8414 38.7121 36.8554C36.6811 38.0751 34.2256 38.8558 31.5513 39.009C27.5495 39.2382 23.8742 38.0156 21.2815 35.8898C18.3256 34.6055 16.2837 31.3083 16.4084 27.5161C16.5516 23.1619 19.505 19.6483 23.2205 19.1419C25.2342 17.9523 27.6573 17.1919 30.293 17.0409C33.8842 16.8352 37.2123 17.7987 39.7312 19.5348Z" fill="#56C4CF"/>
<path d="M46.428 28.4184L49.4264 28.5179L46.428 28.4184ZM39.7312 19.5348L38.0287 22.0049L38.6183 22.4113L39.3278 22.5075L39.7312 19.5348ZM38.7121 36.8554L38.7019 33.8554L37.8758 33.8582L37.1676 34.2835L38.7121 36.8554ZM21.2815 35.8898L23.1836 33.5699L22.8604 33.3049L22.477 33.1383L21.2815 35.8898ZM16.4084 27.5161L13.41 27.4175L16.4084 27.5161ZM23.2205 19.1419L23.6256 22.1144L24.2252 22.0327L24.7463 21.7249L23.2205 19.1419ZM49.4264 28.5179C49.6181 22.7366 45.8322 17.3351 40.1346 16.562L39.3278 22.5075C41.4341 22.7933 43.5385 25.0352 43.4297 28.319L49.4264 28.5179ZM38.7223 39.8554C44.7805 39.8348 49.2279 34.5012 49.4264 28.5179L43.4297 28.319C43.3161 31.7418 40.9044 33.8479 38.7019 33.8554L38.7223 39.8554ZM37.1676 34.2835C35.5632 35.2471 33.5807 35.8878 31.3797 36.0139L31.7228 42.0041C34.8705 41.8238 37.7989 40.9032 40.2566 39.4273L37.1676 34.2835ZM31.3797 36.0139C28.073 36.2033 25.152 35.1838 23.1836 33.5699L19.3794 38.2097C22.5964 40.8474 27.0259 42.2731 31.7228 42.0041L31.3797 36.0139ZM13.41 27.4175C13.2497 32.2958 15.875 36.8117 20.086 38.6413L22.477 33.1383C20.7762 32.3993 19.3178 30.3209 19.4068 27.6147L13.41 27.4175ZM22.8153 16.1694C17.4163 16.9052 13.5931 21.8505 13.41 27.4175L19.4068 27.6147C19.5101 24.4732 21.5937 22.3914 23.6256 22.1144L22.8153 16.1694ZM24.7463 21.7249C26.3384 20.7844 28.2955 20.1602 30.4646 20.036L30.1215 14.0458C27.0191 14.2235 24.13 15.1203 21.6946 16.5589L24.7463 21.7249ZM30.4646 20.036C33.427 19.8663 36.0886 20.6677 38.0287 22.0049L41.4337 17.0647C38.3361 14.9297 34.3413 13.8041 30.1215 14.0458L30.4646 20.036Z" fill="#261A54" mask="url(#path-2-outside-1_377_6295)"/>
<ellipse cx="30.9222" cy="28.0246" rx="13.4665" ry="11.0021" transform="rotate(-3.27809 30.9222 28.0246)" fill="#F48120"/>
<path d="M31.1315 36.7L29.8033 33.4281L32.672 33.523L31.1315 36.7Z" fill="#EF4923"/>
<path d="M31.5507 21.2105L31.4254 20.9163C30.2644 18.1953 26.9842 18.9407 25.7524 19.2207C25.5798 19.2592 25.4444 19.2896 25.3548 19.3037C25.3223 19.3086 25.2892 19.3003 25.2628 19.2808C25.2364 19.2613 25.2188 19.232 25.214 19.1995C25.2091 19.1671 25.2174 19.134 25.2369 19.1076C25.2565 19.0811 25.2857 19.0636 25.3182 19.0587C25.4038 19.0538 25.5343 19.0177 25.6979 18.9797C26.9475 18.6957 30.2011 17.9579 31.5329 20.5576C31.7855 19.9888 32.2358 19.531 32.8004 19.269C34.6558 18.3808 37.4413 19.3648 37.5583 19.4079C37.5891 19.4189 37.6143 19.4417 37.6283 19.4713C37.6423 19.5008 37.6439 19.5348 37.6329 19.5656C37.6219 19.5964 37.5991 19.6215 37.5695 19.6355C37.5399 19.6495 37.506 19.6512 37.4752 19.6401C37.4475 19.6297 34.6681 18.6483 32.9066 19.492C32.6122 19.6296 32.3494 19.8264 32.1347 20.0703C31.9199 20.3141 31.7578 20.5996 31.6586 20.909L31.5507 21.2105Z" fill="#E5DCC9"/>
<path d="M31.6043 23.0098L31.4529 22.9989C31.4474 22.508 30.9564 22.0133 30.4788 21.777C30.1516 21.6164 29.8653 21.5906 29.7078 21.7081L29.6148 21.5854C29.8214 21.4304 30.1601 21.4502 30.5477 21.6389C30.971 21.8467 31.4023 22.2469 31.554 22.6842C31.8138 22.142 32.4997 21.726 32.978 21.6308C33.2582 21.5771 33.4666 21.636 33.5571 21.7951L33.4243 21.872C33.3474 21.7393 33.1299 21.7577 33.0062 21.7814C32.4993 21.8767 31.7021 22.403 31.6103 23.0095" fill="#E5DCC9"/>
<path d="M39.0333 19.4761C35.5819 19.3634 32.5757 21.8424 31.4915 25.355C30.6141 21.8237 27.7992 19.196 24.3764 19.0831C20.1352 18.9418 16.566 22.7187 16.4083 27.5162C16.2505 32.3137 19.5602 36.3189 23.8014 36.4587C27.2544 36.5728 30.2589 34.0924 31.3447 30.5797C32.222 34.111 35.0354 36.7389 38.4582 36.8517C42.7009 36.9929 46.2687 33.2176 46.4279 28.4185C46.587 23.6195 43.276 19.6174 39.0333 19.4761Z" fill="#56C4CF"/>
<path d="M30.5135 29.2311C30.4824 30.1715 30.173 31.0816 29.6244 31.8462C29.0759 32.6107 28.3129 33.1955 27.4319 33.5264C26.5509 33.8573 25.5916 33.9196 24.6752 33.7053C23.7589 33.4909 22.9267 33.0097 22.2839 32.3224C21.6412 31.6351 21.2168 30.7727 21.0644 29.8441C20.912 28.9156 21.0384 27.9628 21.4277 27.1061C21.8171 26.2494 22.4517 25.5275 23.2515 25.0315C24.0513 24.5356 24.9802 24.288 25.9208 24.32C27.1816 24.3621 28.3741 24.903 29.2361 25.8239C30.0982 26.7448 30.5593 27.9702 30.518 29.2308" fill="white"/>
<path d="M23.8041 27.5667C23.5936 27.5597 23.3841 27.5979 23.1897 27.6788C23.2538 27.6839 23.3162 27.7024 23.3728 27.7331C23.4293 27.7639 23.4787 27.8062 23.5179 27.8574C23.6817 28.086 23.5917 28.4362 23.3126 28.6406C23.0334 28.8449 22.6708 28.828 22.5052 28.5949C22.4617 28.5356 22.4344 28.4661 22.4258 28.393C22.2858 28.6805 22.2426 29.0056 22.3025 29.3197C22.3625 29.6337 22.5225 29.92 22.7586 30.1357C22.9947 30.3514 23.2943 30.4849 23.6126 30.5163C23.9308 30.5477 24.2507 30.4753 24.5245 30.31C24.7982 30.1446 25.0111 29.8952 25.1314 29.5989C25.2516 29.3026 25.2728 28.9754 25.1917 28.666C25.1106 28.3567 24.9317 28.082 24.6815 27.8827C24.4313 27.6835 24.1234 27.5706 23.8038 27.5607" fill="#48384C"/>
<path d="M32.2307 29.2386C32.1996 30.1789 32.448 31.1072 32.9446 31.9063C33.4412 32.7054 34.1636 33.3393 35.0205 33.7278C35.8774 34.1163 36.8303 34.2421 37.7587 34.0891C38.6871 33.9362 39.5493 33.5114 40.2363 32.8685C40.9232 32.2256 41.4041 31.3935 41.618 30.4774C41.832 29.5613 41.7694 28.6023 41.4383 27.7217C41.1071 26.8411 40.5222 26.0785 39.7576 25.5304C38.9929 24.9822 38.0828 24.673 37.1424 24.642C36.518 24.6212 35.8956 24.7236 35.3108 24.9433C34.726 25.1631 34.1902 25.4959 33.7341 25.9228C33.2779 26.3497 32.9104 26.8622 32.6524 27.4312C32.3945 28.0001 32.2512 28.6143 32.2307 29.2386Z" fill="white"/>
<path d="M33.947 29.6326C33.9133 29.4253 33.9237 29.2131 33.9777 29.0101C33.9917 29.0729 34.0187 29.1322 34.057 29.1839C34.0953 29.2357 34.1439 29.2789 34.1999 29.3108C34.4473 29.4473 34.783 29.309 34.9479 29.0058C35.1129 28.7025 35.0473 28.3462 34.7984 28.2097C34.7327 28.1759 34.6599 28.1583 34.586 28.1586C34.764 28.0411 34.965 27.9629 35.1756 27.929C35.4648 27.8816 35.7615 27.921 36.0283 28.0422C36.2951 28.1634 36.52 28.361 36.6745 28.6099C36.829 28.8589 36.9062 29.148 36.8964 29.4408C36.8865 29.7337 36.7901 30.017 36.6193 30.2551C36.4484 30.4931 36.2108 30.6752 35.9365 30.7782C35.6622 30.8813 35.3635 30.9007 35.0781 30.834C34.7928 30.7674 34.5336 30.6177 34.3333 30.4038C34.1331 30.1898 34.0007 29.9214 33.9531 29.6323" fill="#48384C"/>
<path d="M52.9214 36.7876L55.3378 36.2932V24.644L52.6729 24.1496V21.0933H60.0633L60.311 23.7565C60.8823 22.8414 61.6629 22.0744 62.5887 21.5185C63.5128 20.9862 64.5435 20.7373 65.6815 20.7373C67.5652 20.7373 69.0575 21.3413 70.1237 22.5131C71.1898 23.7203 71.7233 25.5669 71.7233 28.123V36.2899L74.1406 36.7843V39.8381H64.4725V36.7876L66.6403 36.2932V28.1238C66.6403 26.8812 66.3925 25.9937 65.859 25.4606C65.3635 24.9283 64.579 24.6794 63.5467 24.6794C62.872 24.6794 62.303 24.7865 61.7695 25.07C61.2345 25.3509 60.7722 25.7521 60.4192 26.2418V36.2907L62.4838 36.7851V39.839H52.9214V36.7876Z" fill="white"/>
<path d="M74.3892 36.7876L76.8056 36.2932V24.644L74.1406 24.1496V21.0933H81.5311L81.7788 23.7565C82.3501 22.8414 83.1307 22.0744 84.0565 21.5185C84.9806 20.9862 86.0113 20.7373 87.1493 20.7373C89.033 20.7373 90.5253 21.3413 91.5915 22.5131C92.6576 23.7203 93.1911 25.5669 93.1911 28.123V36.2899L95.6083 36.7843V39.8381H85.9402V36.7876L88.1081 36.2932V28.1238C88.1081 26.8812 87.8603 25.9937 87.3268 25.4606C86.8313 24.9283 86.0468 24.6794 85.0145 24.6794C84.3398 24.6794 83.7708 24.7865 83.2373 25.07C82.7023 25.3509 82.24 25.7521 81.887 26.2418V36.2907L83.9516 36.7851V39.839H74.3892V36.7876Z" fill="#56C4CF"/>
<path d="M110.219 30.252C110.219 28.4392 109.935 26.9856 109.402 25.9201C108.87 24.8547 107.945 24.3223 106.63 24.3223C105.848 24.3223 105.208 24.4649 104.64 24.8168C104.093 25.1509 103.65 25.6302 103.36 26.2011V34.1546C103.662 34.6984 104.103 35.1519 104.64 35.4681C105.208 35.7526 105.883 35.8949 106.666 35.8949C107.98 35.8949 108.904 35.4326 109.438 34.5452C109.933 33.6223 110.219 32.308 110.219 30.6039V30.252ZM115.267 30.6072C115.267 33.4088 114.627 35.6494 113.383 37.318C112.139 39.0221 110.327 39.8387 107.98 39.8387C106.879 39.8387 105.916 39.6261 105.101 39.1646C104.287 38.7032 103.608 38.0283 103.037 37.1763L102.681 39.4835H98.3097V16.0137L95.6084 15.4814V12.4268H103.356V22.727C103.864 22.0036 104.533 21.4081 105.311 20.9875C106.054 20.5969 106.946 20.3835 107.942 20.3835C110.323 20.3835 112.136 21.271 113.38 23.0822C114.623 24.858 115.263 27.2723 115.263 30.2512L115.267 30.6072Z" fill="#EC4923"/>
</svg>
