<svg width="97" height="97" viewBox="0 0 97 97" fill="none" xmlns="http://www.w3.org/2000/svg">
<path d="M37.3691 62.4489L35.8808 71.2883C35.678 72.4968 36.1738 73.7146 37.1632 74.4358C38.154 75.1555 39.4698 75.2519 40.5524 74.6845L48.4996 70.536L56.4469 74.6853C56.9171 74.9293 57.4323 75.0521 57.9422 75.0521C58.6097 75.0521 59.2758 74.8431 59.8377 74.4366C60.8278 73.7154 61.3251 72.4976 61.1208 71.2891L59.634 62.4497L66.0332 56.1725C66.9083 55.3153 67.2199 54.0361 66.8446 52.8719C66.4676 51.7085 65.4589 50.8567 64.2481 50.678L55.3806 49.363L51.3868 41.3357C50.8451 40.2399 49.7229 39.5459 48.4989 39.5459C47.2772 39.5459 46.1557 40.2399 45.6094 41.3357L41.6194 49.363L32.752 50.6772C31.5388 50.8559 30.5347 51.7077 30.157 52.8711C29.7793 54.0353 30.0902 55.3161 30.9668 56.1717L37.3691 62.4489Z" fill="#261A54"/>
<path d="M86.6098 10.3122H76.4562V4.68007C76.4562 2.09523 74.361 0 71.7753 0H71.0331C68.4483 0 66.3538 2.09523 66.3538 4.68007V10.3122H30.529V4.68007C30.529 2.09523 28.4338 0 25.8497 0H25.1067C22.5219 0 20.4274 2.09523 20.4274 4.68007V10.3122H10.3919C5.08157 10.3122 0.759766 14.6324 0.759766 19.9443V87.3686C0.759766 92.6774 5.08157 97.0008 10.3919 97.0008H86.6106C91.9202 97.0008 96.2427 92.6782 96.2427 87.3686V19.9443C96.242 14.6324 91.9194 10.3122 86.6098 10.3122ZM85.3531 86.112H11.6486V33.6263H85.3531V86.112Z" fill="#261A54"/>
</svg>
