<svg width="32" height="32" viewBox="0 0 32 32" fill="none" xmlns="http://www.w3.org/2000/svg">
<g clip-path="url(#clip0_349_12549)">
<path d="M0.562008 12.5783L4.56595 9.31506V4.0962C4.56595 3.50851 5.04415 3.03031 5.63184 3.03031H8.15121C8.7389 3.03031 9.21709 3.50851 9.21709 4.0962V5.52419L14.5672 1.16385C14.9542 0.848544 15.4642 0.674805 16.0034 0.674805C16.5404 0.674805 17.0481 0.847478 17.4329 1.16114L31.438 12.5782C32.0743 13.0967 32.0361 13.5484 31.9568 13.7714C31.8776 13.994 31.6227 14.3675 30.8052 14.3675H28.8875V29.3816C28.8875 30.4531 28.0181 31.3247 26.9495 31.3247H20.8934C19.8338 31.3247 19.0039 30.4711 19.0039 29.3816V23.2246C19.0039 22.6969 18.5189 22.2163 17.9864 22.2163H13.9167C13.4091 22.2163 12.9961 22.6687 12.9961 23.2246V29.3816C12.9961 30.4349 12.0865 31.3247 11.0097 31.3247H5.05045C3.98185 31.3247 3.11247 30.453 3.11247 29.3816V14.3675H1.19476C0.377319 14.3675 0.122475 13.994 0.043211 13.7714C-0.0361481 13.5484 -0.0743256 13.0967 0.562008 12.5783Z" fill="#261A54"/>
</g>
<defs>
<clipPath id="clip0_349_12549">
<rect width="32" height="32" fill="white" transform="matrix(-1 0 0 1 32 0)"/>
</clipPath>
</defs>
</svg>
