<svg width="30" height="31" viewBox="0 0 30 31" fill="none" xmlns="http://www.w3.org/2000/svg">
<g clip-path="url(#clip0_373_3427)">
<path d="M23.7205 5.69678C23.319 5.69678 22.9922 6.02355 22.9922 6.4251C22.9922 6.82664 23.319 7.15342 23.7205 7.15342C24.1221 7.15342 24.4488 6.8267 24.4488 6.4251C24.4488 6.0235 24.1221 5.69678 23.7205 5.69678Z" fill="#261A54"/>
<path d="M14.9998 8.68848C11.4395 8.68848 8.54297 11.585 8.54297 15.1453C8.54297 18.7055 11.4395 21.6021 14.9998 21.6021C18.5601 21.6021 21.4566 18.7056 21.4566 15.1453C21.4566 11.5851 18.5601 8.68848 14.9998 8.68848Z" fill="#261A54"/>
<path d="M21.776 0.145508H8.22404C3.6893 0.145508 0 3.83481 0 8.36961V21.9215C0 26.4563 3.6893 30.1455 8.22404 30.1455H21.776C26.3108 30.1455 30 26.4562 30 21.9215V8.36961C30 3.83481 26.3108 0.145508 21.776 0.145508ZM15 23.3739C10.4628 23.3739 6.77162 19.6827 6.77162 15.1455C6.77162 10.6083 10.4629 6.91719 15 6.91719C19.5371 6.91719 23.2284 10.6084 23.2284 15.1455C23.2284 19.6827 19.5371 23.3739 15 23.3739ZM23.7206 8.92496C22.3421 8.92496 21.2206 7.80348 21.2206 6.425C21.2206 5.04652 22.3421 3.92498 23.7206 3.92498C25.099 3.92498 26.2205 5.04646 26.2205 6.42494C26.2205 7.80342 25.099 8.92496 23.7206 8.92496Z" fill="#261A54"/>
</g>
<defs>
<clipPath id="clip0_373_3427">
<rect width="30" height="30" fill="white" transform="translate(0 0.145508)"/>
</clipPath>
</defs>
</svg>
