<svg width="65" height="38" viewBox="0 0 65 38" fill="none" xmlns="http://www.w3.org/2000/svg">
<path fill-rule="evenodd" clip-rule="evenodd" d="M13.8344 36.6133C41.858 38.1887 45.2854 36.6183 64.3041 6.03032L52.0228 11.9083L51.7615 12.5188L41.4781 33.9328C40.4851 34.4608 39.4534 34.9127 38.392 35.2846L48.9018 13.3896L41.0774 17.1403L41.0243 17.2002L40.9719 17.1537L26.2704 24.266L16.3076 36.75L13.8344 36.6133ZM0.000295862 35.7761C5.10274 36.0544 9.60394 36.347 13.6052 36.5702L21.7944 26.3094L1.77667 35.8691L0.000295862 35.7761ZM19.5832 7.53467C13.8738 12.9096 8.57128 21.4409 1.23752 33.7052L38.3538 16.0056L19.5832 7.53467ZM62.635 4.40094C39.601 -1.78419 30.8348 -1.61147 21.4725 5.94927L40.9924 14.7512L62.635 4.40094Z" fill="#8CC886"/>
</svg>
