<svg width="47" height="55" viewBox="0 0 47 55" fill="none" xmlns="http://www.w3.org/2000/svg">
<path fill-rule="evenodd" clip-rule="evenodd" d="M43.7397 40.841C38.0124 13.3637 35.6089 10.4592 1.14233 0.000217139L9.99713 10.343L10.6545 10.4375L33.9997 14.8316C34.7666 15.6542 35.47 16.5339 36.1038 17.463L12.2354 12.9746L17.8824 19.5625L17.954 19.5983L17.9226 19.6609L28.5958 32.0222L43.232 38.4167L43.7397 40.841ZM46.5096 54.4208C45.4585 49.4201 44.5769 44.9964 43.7574 41.0736L31.7275 35.8173L46.1399 52.6809L46.5096 54.4208ZM14.1638 42.8099C20.8326 46.9345 30.4452 49.8498 44.1891 53.7614L17.4908 22.4869L14.1638 42.8099ZM0.000174958 2.03406C-0.0160799 25.884 2.41838 34.3071 12.1436 41.3949L15.5966 20.2626L0.000174958 2.03406Z" fill="#8CC886"/>
</svg>
