<svg width="54" height="48" viewBox="0 0 54 48" fill="none" xmlns="http://www.w3.org/2000/svg">
<path fill-rule="evenodd" clip-rule="evenodd" d="M4.74636 13.0213C14.471 39.3507 17.2772 41.8682 52.911 47.1194L42.6251 38.1986L41.961 38.2022L18.2228 37.306C17.3427 36.6057 16.5171 35.8396 15.753 35.0144L40.0225 35.9266L33.464 30.2455L33.388 30.2206L33.4097 30.1541L21.0272 19.5056L5.60672 15.344L4.74636 13.0213ZM0.000287889 -0.000133968C1.77876 4.79042 3.30439 9.03529 4.69451 12.7939L17.3691 16.2149L0.622999 1.66612L0.000287889 -0.000133968ZM33.7067 6.70379C26.5016 3.60985 16.5638 2.14701 2.39271 0.309167L33.4192 27.2953L33.7067 6.70379ZM53.7401 44.9391C50.232 21.3487 46.5796 13.3777 35.9138 7.8047L35.6214 29.2153L53.7401 44.9391Z" fill="#8CC886"/>
</svg>
