<svg width="39" height="39" viewBox="0 0 39 39" fill="none" xmlns="http://www.w3.org/2000/svg">
<path d="M19.5003 0C11.7121 0 5.37598 6.33613 5.37598 14.1242C5.37598 23.7895 18.0159 37.9788 18.554 38.5781C19.0595 39.1411 19.942 39.1401 20.4466 38.5781C20.9847 37.9788 33.6246 23.7895 33.6246 14.1242C33.6245 6.33613 27.2884 0 19.5003 0ZM19.5003 21.2305C15.5819 21.2305 12.3941 18.0427 12.3941 14.1242C12.3941 10.2058 15.5819 7.01802 19.5003 7.01802C23.4187 7.01802 26.6064 10.2059 26.6064 14.1243C26.6064 18.0428 23.4187 21.2305 19.5003 21.2305Z" fill="#56C4CF"/>
</svg>
