<svg width="104" height="108" viewBox="0 0 104 108" fill="none" xmlns="http://www.w3.org/2000/svg">
<path d="M7.28125 34.4248V57.7123H10.825V34.4248C10.3187 34.5936 9.64375 34.5936 9.1375 34.5936C8.4625 34.4248 7.95625 34.4248 7.28125 34.4248Z" fill="#261A54"/>
<path d="M94.8623 34.4246C94.1873 34.4246 93.6811 34.4246 93.1748 34.2559V57.5434H96.7186V34.4246C96.0436 34.4246 95.5373 34.4246 94.8623 34.4246Z" fill="#261A54"/>
<path d="M21.625 21.9371C21.625 26.8309 25.675 30.8809 30.5687 30.8809C35.4625 30.8809 39.5125 26.8309 39.5125 21.9371V20.7559H21.625V21.9371Z" fill="#261A54"/>
<path d="M22.8057 6.075L24.9994 0H15.3807C13.5244 0 11.8369 1.0125 10.9932 2.7L1.71191 17.2125H18.7557L22.8057 6.075Z" fill="#261A54"/>
<path d="M60.6059 16.3687L58.5809 0H45.4184L43.3934 16.3687L43.2246 17.2125H60.7746L60.6059 16.3687Z" fill="#261A54"/>
<path d="M9.13711 31.0498C14.0309 31.0498 18.0809 26.9998 18.0809 22.1061V20.9248H0.193359V21.9373C0.193359 26.9998 4.07461 31.0498 9.13711 31.0498Z" fill="#261A54"/>
<path d="M39.6811 17.2125L41.7061 0.84375L41.8748 0H28.8811L26.0123 7.59375L22.2998 17.2125H39.6811Z" fill="#261A54"/>
<path d="M85.918 20.7559V21.9371C85.918 26.8309 89.968 30.8809 94.8617 30.8809C99.7555 30.8809 103.805 26.8309 103.805 21.9371V20.7559H85.918Z" fill="#261A54"/>
<path d="M85.4125 17.2125H102.456L93.175 2.86875C92.1625 1.0125 90.475 0 88.45 0H79L81.3625 6.075L85.4125 17.2125Z" fill="#261A54"/>
<path d="M64.3187 17.2125H81.7L77.9875 7.59375L75.1188 0H62.125L62.2937 0.84375L64.3187 17.2125Z" fill="#261A54"/>
<path d="M51.9994 31.0498C56.8932 31.0498 60.9432 26.9998 60.9432 22.1061V20.9248H43.0557V21.9373C43.0557 26.9998 47.1057 31.0498 51.9994 31.0498Z" fill="#261A54"/>
<path d="M64.4873 21.9371C64.4873 26.8309 68.5373 30.8809 73.4311 30.8809C78.3248 30.8809 82.3748 26.9996 82.3748 21.9371V20.7559H64.4873V21.9371Z" fill="#261A54"/>
<path d="M16.7305 103.781H28.0367V108H16.7305V103.781Z" fill="#261A54"/>
<path d="M75.9619 103.781H87.2682V108H75.9619V103.781Z" fill="#261A54"/>
<path d="M100.431 61.0879H3.56836C1.71211 61.0879 0.193359 62.6066 0.193359 64.4629C0.193359 66.3191 1.71211 67.8379 3.56836 67.8379H100.431C102.287 67.8379 103.806 66.3191 103.806 64.4629C103.806 62.6066 102.287 61.0879 100.431 61.0879Z" fill="#261A54"/>
<path d="M6.4375 94.8373C6.4375 97.7061 8.8 100.069 11.6688 100.069H92.3313C95.2 100.069 97.5625 97.7061 97.5625 94.8373V71.5498H6.4375V94.8373Z" fill="#261A54"/>
</svg>
