<svg width="341" height="342" viewBox="0 0 341 342" fill="none" xmlns="http://www.w3.org/2000/svg">
<path fill-rule="evenodd" clip-rule="evenodd" d="M94.4395 74.1555C112.809 58.4719 135.133 48.4161 158.107 45.4754C111.685 90.5099 107.793 164.486 150.5 214.188C178.759 247.075 220.616 261.398 260.645 255.962C258.794 257.762 257.017 259.409 255.082 261.071C203.439 305.445 125.622 299.554 81.2741 247.942C36.9261 196.33 42.7967 118.53 94.4395 74.1555Z" fill="#FACE06"/>
<path fill-rule="evenodd" clip-rule="evenodd" d="M186.509 98.2547C179.631 104.165 178.834 114.542 184.749 121.426C190.664 128.31 201.074 129.119 207.951 123.209C214.829 117.299 215.626 106.921 209.726 100.054C203.826 93.1878 193.451 92.3796 186.554 98.3063" fill="#514570"/>
<path fill-rule="evenodd" clip-rule="evenodd" d="M247.502 118.124C236.833 127.291 235.59 143.317 244.774 154.004C253.957 164.691 270.002 165.893 280.67 156.726C291.339 147.559 292.581 131.533 283.384 120.828C274.186 110.124 258.17 108.957 247.502 118.124Z" fill="#514570"/>
<path fill-rule="evenodd" clip-rule="evenodd" d="M189.029 155.264C182.014 161.291 181.208 171.856 187.227 178.861C193.245 185.865 203.782 186.624 210.796 180.597C217.811 174.569 218.617 164.004 212.599 157C206.58 149.996 196.014 149.202 189 155.23" fill="#514570"/>
</svg>
