<svg width="179" height="167" viewBox="0 0 179 167" fill="none" xmlns="http://www.w3.org/2000/svg">
<path fill-rule="evenodd" clip-rule="evenodd" d="M172.4 7.64969C172.564 2.66089 172.4 1.62455 171.3 0.660541C170.177 -0.327579 168.796 -0.207089 166.76 1.02205C164.255 2.54038 139.167 16.7596 130.648 21.4833L127.067 23.4597L123.697 21.9895C108.04 15.0727 89.6208 13.3374 71.6233 17.0489C65.6787 18.278 61.2554 19.7 56.3172 21.9413C53.3216 23.315 52.994 23.4115 52.3621 23.1464C51.1919 22.6402 35.7922 14.0363 24.6988 7.6738C22.0861 6.1767 19.5636 4.72843 17.5089 3.5488C14.9991 2.10785 13.1874 1.06777 12.7628 0.829248C10.4224 -0.496287 8.6203 -0.110672 7.82457 1.86557C7.42679 2.85369 7.37994 9.11982 7.73108 12.8314C8.62029 22.1342 11.6161 33.8229 15.8989 44.8368C16.0549 45.2349 16.1973 45.5886 16.3248 45.9058C16.8794 47.2841 17.1561 47.9714 17.0621 48.6051C16.9686 49.2345 16.5096 49.8114 15.5946 50.9614C15.385 51.2251 15.1512 51.5188 14.8927 51.85C8.36301 60.1647 4.08003 69.4675 2.11377 79.5656C1.17719 84.3617 0.943939 86.9646 0.943939 92.2667C0.943939 103.136 3.28432 113.162 7.8714 121.766C10.5396 126.803 12.9268 130.056 17.1862 134.394C25.12 142.492 34.0134 147.626 51.496 154.205C68.8383 160.736 86.906 166.569 89.8315 166.569C91.8911 166.569 100.48 164.014 113.399 159.531C136.077 151.699 146.492 147.023 155.058 140.902C161.26 136.443 166.689 130.635 170.574 124.248C177.291 113.162 180.287 98.0989 178.485 84.2653C176.823 71.5402 171.932 60.213 163.904 50.4522C163.226 49.6087 162.664 48.7411 162.664 48.5242C162.664 48.2831 163.296 46.4756 164.068 44.4994C166.947 37.1728 169.334 29.075 170.738 21.8449C171.815 16.3018 172.236 12.8072 172.4 7.64969ZM111.293 59.1525C115.88 55.6097 122.035 53.0551 127.605 52.332C137.645 51.0547 148.318 55.417 155.339 63.6834C162.126 71.6848 165.73 83.1084 164.794 93.6163C163.834 104.727 159.528 113.788 151.898 120.898C141.577 130.466 126.973 133.165 113.61 127.96L111.714 127.236L105.652 133.479C102.329 136.901 97.9526 141.239 95.9632 143.095C95.6781 143.359 95.407 143.611 95.1486 143.851L95.1434 143.856C92.1013 146.683 90.8409 147.854 89.6965 147.753C88.8871 147.682 88.1355 146.974 86.8526 145.765C86.6918 145.614 86.5229 145.455 86.3443 145.288C81.5232 140.829 74.9467 134.274 71.6936 130.755C69.9383 128.851 68.3702 127.285 68.2064 127.285C68.0659 127.285 66.9426 127.67 65.749 128.152C59.5938 130.611 51.5897 131.237 45.06 129.815C38.741 128.442 32.0475 124.875 27.4604 120.44C21.3052 114.536 17.2797 106.92 15.5244 98.0026C14.8692 94.6285 14.9393 85.9041 15.6649 82.4818C16.7649 77.1316 18.801 71.9981 21.352 67.9733C29.2858 55.6097 43.1409 49.6811 56.2939 53.0793C62.4725 54.6697 67.9021 57.9234 72.9105 63.0567C78.27 68.5517 81.2422 73.179 87.3506 85.5908L89.0591 89.0854H89.9953H90.9315L93.2251 84.3857C97.5313 75.541 99.9185 71.4679 103.218 67.2984C105.348 64.5751 108.999 60.9118 111.293 59.1525ZM144.924 87.8811C143.848 79.1085 138.114 72.6495 129.782 70.8179C124.095 69.5406 118.08 71.3964 113.61 75.7826C109.725 79.5663 107.829 84.1455 107.806 89.809C107.783 93.9785 108.766 97.4489 110.849 100.678C117.495 110.993 131.327 112.367 139.775 103.571C143.59 99.594 145.603 93.4723 144.924 87.8811ZM117.074 85.8324C117.191 84.0973 118.01 82.7236 119.414 81.9042C124.563 78.8434 129.642 85.6397 125.452 89.9537C123.767 91.689 122.012 92.0505 119.953 91.0383C117.846 90.0259 116.887 88.339 117.074 85.8324ZM56.5263 70.6717C65.8411 72.4552 72.0898 80.1914 72.0898 89.9281C72.0898 95.3265 70.2175 99.8815 66.3559 103.834C64.4836 105.738 63.8985 106.196 61.7688 107.256C60.4348 107.907 58.6795 108.63 57.8603 108.847C49.5755 110.992 40.7288 106.798 36.8438 98.8453C35.4863 96.0496 35.065 94.3385 34.948 90.9643C34.8077 87.3252 35.0417 85.7104 36.0714 82.8907C37.9906 77.7814 42.5777 73.2023 47.5159 71.467C50.4647 70.4548 53.7646 70.1657 56.5263 70.6717ZM54.9348 82.1195C52.2903 84.0475 52.1732 88.241 54.6775 90.3619C56.4328 91.8561 58.6093 91.9283 60.5518 90.5788C62.1432 89.4701 62.7985 88.0964 62.6815 86.0237C62.6113 84.6982 62.4709 84.2162 61.9093 83.3727C60.2943 81.0109 57.2285 80.4807 54.9348 82.1195ZM92.453 102.823C91.5168 101.353 90.6509 100.1 90.4871 100.003C89.738 99.4974 89.4104 99.8107 87.07 103.426C84.7532 107.017 82.7872 109.668 80.1426 112.729C79.066 113.982 78.1766 115.066 78.1766 115.163C78.1766 115.476 82.5999 124.538 84.0276 127.165C85.8297 130.442 88.2402 134.274 88.9658 134.949C89.6445 135.624 90.3699 135.624 90.9785 134.925C91.6104 134.25 94.6061 129.454 96.0337 126.876C97.8826 123.55 101.58 115.765 101.58 115.235C101.58 114.922 100.902 113.958 99.9187 112.873C97.8591 110.559 94.6997 106.318 92.453 102.823Z" fill="#201646"/>
</svg>
