<svg width="69" height="57" viewBox="0 0 69 57" fill="none" xmlns="http://www.w3.org/2000/svg">
<path d="M60.7017 9.31944H50.7261V8.2946C50.7261 3.71598 47.0101 0 42.4315 0H26.5667C21.9862 0 18.2721 3.71598 18.2721 8.2946V9.31944H8.2946C3.71414 9.31944 0 13.0336 0 17.614V47.7216C0 52.3002 3.71414 56.0162 8.2946 56.0162H60.7054C65.2859 56.0162 69 52.3002 69 47.7216V17.614C68.9963 13.0317 65.2822 9.31944 60.7017 9.31944ZM34.4963 47.4119C25.8552 47.4119 18.8287 40.3855 18.8287 31.7444C18.8287 23.1051 25.8552 16.0768 34.4963 16.0768C43.1374 16.0768 50.1639 23.1032 50.1639 31.7444C50.1639 40.3855 43.1356 47.4119 34.4963 47.4119ZM42.7909 31.7444C42.7909 36.3138 39.0676 40.039 34.4963 40.039C29.9251 40.039 26.2017 36.3138 26.2017 31.7444C26.2017 27.1731 29.9251 23.4498 34.4963 23.4498C39.0676 23.4498 42.7909 27.1731 42.7909 31.7444Z" fill="#261A54"/>
</svg>
