<svg width="409" height="492" viewBox="0 0 409 492" fill="none" xmlns="http://www.w3.org/2000/svg">
<path fill-rule="evenodd" clip-rule="evenodd" d="M26.3705 137.014L286.982 65.5269L408.655 405.45L94.7555 489.685L26.3705 137.014Z" fill="#F18020"/>
<path d="M60.0445 227.324L50.56 261.853L67.1412 347.431L110.563 386.635L137.13 296.379L60.0445 227.324Z" fill="#F26E21"/>
<path d="M173.979 196.071L149.101 287.1L224.481 355.386L250.925 265.164L173.979 196.071Z" fill="#F26E21"/>
<path d="M294.405 163.037L269.648 254.033L344.886 322.359L360.102 270.031L334.913 199.518L294.405 163.037Z" fill="#F26E21"/>
<path d="M135.093 23.1992C158.75 16.7099 183.68 24.2709 204.928 41.7293C226.177 59.1876 243.067 85.3038 251.858 117.354C253.447 123.182 254.718 129.093 255.667 135.058C254.047 136.349 252.181 137.295 250.183 137.838C248.587 138.267 246.936 138.454 245.285 138.394C244.346 132.217 243.043 126.101 241.383 120.077C233.184 90.1894 217.301 65.5596 198.256 49.8595C179.711 34.6218 158.198 27.9236 138.089 33.4395C117.98 38.9554 103.034 55.6548 94.7557 78.2502C86.1778 101.528 85.2578 130.767 93.4562 160.654C95.1133 166.679 97.125 172.601 99.4805 178.389C98.0896 179.281 96.5748 179.962 94.9848 180.41C92.9773 180.961 90.8792 181.103 88.8149 180.827C86.5988 175.208 84.6884 169.473 83.0923 163.647C74.3008 131.597 75.5765 99.9732 84.6946 74.7102C93.8127 49.4472 111.645 29.6312 135.267 23.1515" fill="#9A94C8"/>
</svg>
