<svg width="101" height="101" viewBox="0 0 101 101" fill="none" xmlns="http://www.w3.org/2000/svg">
<g clip-path="url(#clip0_349_7467)">
<path d="M86.4203 53.917H78.6094C79.4055 56.0968 79.8405 58.4492 79.8405 60.901V90.4219C79.8405 91.4441 79.6626 92.4253 79.3389 93.3378H92.2521C97.0758 93.3378 101 89.4134 101 84.5899V68.4967C101 60.4575 94.4597 53.917 86.4203 53.917Z" fill="#261A54"/>
<path d="M21.1597 60.901C21.1597 58.449 21.5947 56.0968 22.3909 53.917H14.5799C6.54055 53.917 0 60.4575 0 68.4969V84.5901C0 89.4136 3.92421 93.338 8.74796 93.338H21.6614C21.3377 92.4251 21.1597 91.4441 21.1597 90.4219V60.901Z" fill="#261A54"/>
<path d="M59.429 46.3213H41.5721C33.5327 46.3213 26.9922 52.8618 26.9922 60.9012V90.4221C26.9922 92.0324 28.2977 93.3381 29.9082 93.3381H71.093C72.7035 93.3381 74.009 92.0326 74.009 90.4221V60.9012C74.009 52.8618 67.4684 46.3213 59.429 46.3213Z" fill="#261A54"/>
<path d="M50.5 7.66211C40.8316 7.66211 32.9658 15.5279 32.9658 25.1965C32.9658 31.7546 36.5855 37.4822 41.931 40.4893C44.4664 41.9156 47.3895 42.7307 50.5 42.7307C53.6105 42.7307 56.5336 41.9156 59.069 40.4893C64.4148 37.4822 68.0342 31.7544 68.0342 25.1965C68.0342 15.5281 60.1684 7.66211 50.5 7.66211Z" fill="#261A54"/>
<path d="M19.7099 24.0049C12.4792 24.0049 6.59668 29.8874 6.59668 37.1181C6.59668 44.3489 12.4792 50.2314 19.7099 50.2314C21.5441 50.2314 23.2907 49.8515 24.8773 49.1685C27.6205 47.9875 29.8824 45.8969 31.282 43.2782C32.2643 41.4402 32.8232 39.3435 32.8232 37.1181C32.8232 29.8876 26.9407 24.0049 19.7099 24.0049Z" fill="#261A54"/>
<path d="M81.29 24.0049C74.0592 24.0049 68.1768 29.8874 68.1768 37.1181C68.1768 39.3437 68.7356 41.4404 69.718 43.2782C71.1176 45.8971 73.3795 47.9877 76.1226 49.1685C77.7092 49.8515 79.4558 50.2314 81.29 50.2314C88.5208 50.2314 94.4033 44.3489 94.4033 37.1181C94.4033 29.8874 88.5208 24.0049 81.29 24.0049Z" fill="#261A54"/>
</g>
<defs>
<clipPath id="clip0_349_7467">
<rect width="101" height="101" fill="white"/>
</clipPath>
</defs>
</svg>
