<svg width="68" height="68" viewBox="0 0 68 68" fill="none" xmlns="http://www.w3.org/2000/svg">
<g clip-path="url(#clip0_358_8493)">
<path d="M65.6056 39.3633C67.6342 22.2868 64.6309 11.506 59.2136 6.62983L59.2164 6.62699C50.4727 -1.70017 20.9437 -2.93267 10.4831 7.00099C5.7854 11.8602 4.13074 18.9917 3.9494 27.8203C3.76807 36.6518 3.55274 53.1957 18.9689 57.6837H18.9831L18.9689 64.5375C18.9689 64.5375 18.8641 67.3142 20.6377 67.8723C22.6664 68.5297 23.5844 67.2405 29.8942 59.7038C40.4456 60.619 48.5489 58.5223 49.4697 58.2163C51.6004 57.5023 63.6562 55.9072 65.6056 39.3633ZM30.9341 54.8815C30.9341 54.8815 24.2559 63.2087 22.1791 65.3705C21.4991 66.0732 20.7539 66.008 20.7652 64.614C20.7652 63.6988 20.8162 53.2353 20.8162 53.2353C7.74607 49.4897 8.51674 35.4023 8.6584 28.0328C8.80007 20.6605 10.1487 14.6227 14.1267 10.5568C23.3039 1.95199 49.1921 3.87583 55.7881 10.0752C63.8517 17.2237 60.9816 37.4197 60.9986 38.1082C59.3411 51.9178 49.5717 52.7933 47.7754 53.3912C47.0076 53.6462 39.8817 55.4793 30.9341 54.8815Z" fill="#261A54"/>
<path d="M34.6287 12.1748C33.5378 12.1748 33.5378 13.8748 34.6287 13.889C43.0918 13.9541 50.0618 19.8531 50.1383 30.6736C50.1383 31.8155 51.81 31.8013 51.7958 30.6595C51.7052 19.0003 44.092 12.24 34.6287 12.1748Z" fill="#261A54"/>
<path d="M45.7613 28.8803C45.7358 30.0079 47.4047 30.0618 47.4188 28.9199C47.5577 22.4911 43.5938 17.1956 36.145 16.6374C35.0542 16.5581 34.9408 18.2723 36.0288 18.3516C42.4888 18.8418 45.8917 23.2504 45.7613 28.8803Z" fill="#261A54"/>
<path d="M43.976 36.193C42.5763 35.3826 41.1511 35.887 40.5618 36.6831L39.3293 38.2783C38.7031 39.0886 37.533 38.981 37.533 38.981C28.9933 36.7228 26.7096 27.7865 26.7096 27.7865C26.7096 27.7865 26.6048 26.5766 27.3868 25.9278L28.9281 24.6528C29.6988 24.0408 30.1861 22.5675 29.4013 21.1196C27.3046 17.3315 25.8965 16.0253 25.1796 15.0223C24.426 14.0788 23.2926 13.8663 22.114 14.5038H22.0885C19.6376 15.9375 16.9545 18.6206 17.813 21.3831C19.2778 24.2958 21.9695 33.5806 30.5488 40.596C34.5806 43.9138 40.9613 47.3138 43.67 48.0986L43.6955 48.1383C46.3645 49.028 48.9598 46.24 50.3453 43.7155V43.6956C50.9601 42.4745 50.7561 41.3185 49.858 40.562C48.2656 39.0093 45.863 37.2951 43.976 36.193Z" fill="#261A54"/>
<path d="M37.3118 22.9611C40.0347 23.1198 41.355 24.5421 41.4967 27.4633C41.5477 28.6051 43.2052 28.5258 43.1542 27.3839C42.9728 23.5703 40.9838 21.4453 37.4025 21.2469C36.3117 21.1818 36.2097 22.8959 37.3118 22.9611Z" fill="#261A54"/>
</g>
<defs>
<clipPath id="clip0_358_8493">
<rect width="68" height="68" fill="#261A54"/>
</clipPath>
</defs>
</svg>
