<svg width="64" height="66" viewBox="0 0 64 66" fill="none" xmlns="http://www.w3.org/2000/svg">
<path d="M40.7273 61.0906H2.90909C2.13755 61.0906 1.39761 60.7842 0.852053 60.2386C0.306493 59.693 0 58.9531 0 58.1816C0 57.41 0.306493 56.6701 0.852053 56.1245C1.39761 55.579 2.13755 55.2725 2.90909 55.2725H40.7273C41.4988 55.2725 42.2388 55.579 42.7843 56.1245C43.3299 56.6701 43.6364 57.41 43.6364 58.1816C43.6364 58.9531 43.3299 59.693 42.7843 60.2386C42.2388 60.7842 41.4988 61.0906 40.7273 61.0906Z" fill="#261A54"/>
<path d="M61.0909 61.0906H49.4545C48.683 61.0906 47.943 60.7842 47.3975 60.2386C46.8519 59.693 46.5454 58.9531 46.5454 58.1816C46.5454 57.41 46.8519 56.6701 47.3975 56.1245C47.943 55.579 48.683 55.2725 49.4545 55.2725H61.0909C61.8624 55.2725 62.6023 55.579 63.1479 56.1245C63.6935 56.6701 64 57.41 64 58.1816C64 58.9531 63.6935 59.693 63.1479 60.2386C62.6023 60.7842 61.8624 61.0906 61.0909 61.0906Z" fill="#261A54"/>
<path d="M52.3636 0H11.6364C8.55122 0.00328813 5.59337 1.23031 3.41184 3.41184C1.23031 5.59337 0.00328813 8.55122 0 11.6364V37.8182C0.00328813 40.9033 1.23031 43.8612 3.41184 46.0427C5.59337 48.2242 8.55122 49.4513 11.6364 49.4545H52.3636C55.4488 49.4513 58.4066 48.2242 60.5882 46.0427C62.7697 43.8612 63.9967 40.9033 64 37.8182V11.6364C63.9967 8.55122 62.7697 5.59337 60.5882 3.41184C58.4066 1.23031 55.4488 0.00328813 52.3636 0ZM40.304 27.0353L28.0106 33.1823C27.6172 33.379 27.18 33.4718 26.7406 33.452C26.3012 33.4322 25.8741 33.3004 25.5 33.0692C25.1258 32.8379 24.817 32.5148 24.6029 32.1306C24.3887 31.7464 24.2763 31.3138 24.2764 30.8739V18.5806C24.2763 18.1407 24.3887 17.7082 24.6029 17.3239C24.8171 16.9397 25.1259 16.6167 25.5 16.3854C25.8742 16.1541 26.3013 16.0223 26.7407 16.0026C27.1801 15.9828 27.6173 16.0757 28.0107 16.2724L40.3041 22.4193C40.7327 22.6336 41.0932 22.963 41.3452 23.3707C41.5971 23.7783 41.7306 24.2481 41.7306 24.7273C41.7306 25.2066 41.5971 25.6763 41.3451 26.084C41.0931 26.4916 40.7326 26.8211 40.304 27.0353Z" fill="#261A54"/>
<path d="M40.7272 65.4546C40.3452 65.4547 39.9668 65.3796 39.6138 65.2334C39.2608 65.0872 38.9401 64.873 38.6699 64.6028C38.3998 64.3327 38.1855 64.0119 38.0394 63.6589C37.8932 63.3059 37.818 62.9276 37.8181 62.5455V53.8183C37.8181 53.0467 38.1246 52.3068 38.6702 51.7612C39.2157 51.2157 39.9557 50.9092 40.7272 50.9092C41.4987 50.9092 42.2387 51.2157 42.7842 51.7612C43.3298 52.3068 43.6363 53.0467 43.6363 53.8183V62.5455C43.6364 62.9276 43.5612 63.3059 43.4151 63.6589C43.2689 64.0119 43.0546 64.3327 42.7845 64.6028C42.5143 64.873 42.1936 65.0872 41.8406 65.2334C41.4876 65.3796 41.1093 65.4547 40.7272 65.4546Z" fill="#261A54"/>
</svg>
