<svg width="30" height="31" viewBox="0 0 30 31" fill="none" xmlns="http://www.w3.org/2000/svg">
<g clip-path="url(#clip0_373_3437)">
<path d="M13.0723 12.1934V17.6695L18.1199 14.9553L13.0723 12.1934Z" fill="#261A54"/>
<path d="M22.4762 0.145508H7.5C3.38095 0.145508 0 3.52646 0 7.66932V22.6455C0 26.7646 3.38095 30.1455 7.5 30.1455H22.4762C26.619 30.1455 30 26.7646 30 22.6217V7.66932C30 3.52646 26.619 0.145508 22.4762 0.145508ZM24.2857 15.8836C24.2857 17.455 24.1429 19.0503 24.1429 19.0503C24.1429 19.0503 23.9762 20.3836 23.4286 20.9788C22.7143 21.7646 21.9286 21.7646 21.5714 21.8122C18.9524 22.0027 15.0238 22.0265 15.0238 22.0265C15.0238 22.0265 10.1429 21.955 8.64286 21.8122C8.2381 21.7407 7.28571 21.7646 6.57143 20.9788C6 20.3836 5.85714 19.0503 5.85714 19.0503C5.85714 19.0503 5.71429 17.455 5.71429 15.8836V14.4074C5.71429 12.836 5.85714 11.2407 5.85714 11.2407C5.85714 11.2407 6.02381 9.90741 6.57143 9.31217C7.28571 8.52646 8.07143 8.50265 8.42857 8.45503C11.0714 8.26456 15 8.24075 15 8.24075C15 8.24075 18.9286 8.26456 21.5476 8.45503C21.9048 8.50265 22.7143 8.52646 23.4286 9.28837C24 9.8836 24.1429 11.2407 24.1429 11.2407C24.1429 11.2407 24.2857 12.836 24.2857 14.4074V15.8836Z" fill="#261A54"/>
</g>
<defs>
<clipPath id="clip0_373_3437">
<rect width="30" height="30" fill="white" transform="translate(0 0.145508)"/>
</clipPath>
</defs>
</svg>
