<svg width="302" height="96" viewBox="0 0 302 96" fill="none" xmlns="http://www.w3.org/2000/svg">
<path d="M84.3882 58.2935H91.8623L91.9117 58.4415L85.2311 64.7196H79.5876L84.3882 58.2935ZM83.7454 89.6866C84.9827 89.6866 86.021 89.2907 86.7638 88.5989C87.5055 87.8566 87.9022 86.8687 87.9022 85.6331H94.2896L94.3391 85.7811C94.438 88.4509 93.4479 90.6251 91.3701 92.4057C89.3406 94.1852 86.7707 95.0744 83.7489 95.0744C79.8394 95.0744 76.8199 93.8387 74.7421 91.3674C72.6137 88.9442 71.5742 85.7811 71.5742 81.9249V81.1826C71.5742 77.3264 72.6631 74.1633 74.7938 71.6908C76.9716 69.2183 80.0889 67.9826 84.0973 67.9826C86.1762 67.9826 88.1057 68.2798 89.7396 68.9223C91.415 69.5648 92.8017 70.4058 93.9447 71.5933L94.0436 78.5633H88.2977L87.1605 74.4616C86.7631 74.1368 86.3106 73.8858 85.8244 73.7204C85.2707 73.5132 84.6828 73.4124 84.0916 73.4232C82.0621 73.4232 80.6765 74.1116 79.8371 75.6032C79.0448 77.0373 78.5998 78.9155 78.5998 81.1895V81.9318C78.5998 84.2551 78.9954 86.1333 79.7382 87.5675C80.5281 88.9442 81.8148 89.6866 83.7454 89.6866Z" fill="#56C4CF"/>
<path d="M97.8461 90.3295L101.212 89.6411V73.4214L97.5 72.733V68.4776H107.794L108.138 72.1857C108.933 70.9118 110.019 69.8439 111.307 69.0696C112.594 68.3284 114.029 67.9819 115.613 67.9819C118.235 67.9819 120.314 68.8229 121.799 70.4544C123.283 72.1352 124.026 74.7064 124.026 78.2654V89.6365L127.392 90.3249V94.5769H113.93V90.3295L116.949 89.6411V78.2666C116.949 76.5364 116.604 75.3007 115.861 74.5584C115.171 73.8172 114.079 73.4707 112.641 73.4707C111.701 73.4707 110.91 73.6199 110.167 74.0146C109.422 74.4057 108.778 74.9642 108.286 75.6461V89.6377L111.16 90.3261V94.5781H97.8461V90.3295Z" fill="#56C4CF"/>
<path d="M140.603 62.1992H133.527V56.9077H140.603V62.1992ZM130.112 90.3293L133.527 89.6409V73.4212L129.766 72.7328V68.4773H140.603V89.6375L143.969 90.3259V94.5778H130.112V90.3293Z" fill="#56C4CF"/>
<path d="M177.152 81.7267C177.152 79.2025 176.756 77.1787 176.015 75.6952C175.273 74.2117 173.985 73.4705 172.155 73.4705C171.066 73.4705 170.175 73.669 169.383 74.1589C168.622 74.6241 168.005 75.2915 167.601 76.0864V87.1604C168.021 87.9176 168.637 88.549 169.383 88.9892C170.175 89.3854 171.115 89.5835 172.204 89.5835C174.035 89.5835 175.321 88.9399 176.064 87.7042C176.754 86.4192 177.152 84.5892 177.152 82.2166V81.7267ZM184.18 82.2212C184.18 86.1221 183.289 89.2416 181.557 91.565C179.825 93.9376 177.302 95.0746 174.035 95.0746C172.501 95.0746 171.16 94.7786 170.026 94.1361C168.892 93.4936 167.947 92.554 167.152 91.3676L166.656 94.5801H160.57V61.902L156.809 61.1609V56.9077H167.597V71.2493C168.303 70.242 169.235 69.4128 170.318 68.8273C171.353 68.2834 172.595 67.9863 173.981 67.9863C177.297 67.9863 179.821 69.222 181.552 71.7438C183.284 74.2163 184.175 77.5779 184.175 81.7255L184.18 82.2212Z" fill="#EC4923"/>
<path d="M198.671 89.8839C199.671 89.8915 200.658 89.6551 201.546 89.1955C202.437 88.7503 203.129 88.1629 203.574 87.4653V83.4566H200.009C198.475 83.4566 197.337 83.8008 196.594 84.5443C195.803 85.2372 195.407 86.0786 195.406 87.0684C195.395 87.4583 195.469 87.8459 195.623 88.2044C195.777 88.563 196.007 88.8839 196.298 89.145C196.842 89.6391 197.634 89.8862 198.673 89.8862M204.761 94.5834C204.562 94.1382 204.416 93.693 204.265 93.2479C204.127 92.7927 204.012 92.3309 203.92 91.8642C203.063 92.8356 202.02 93.6256 200.852 94.1875C199.663 94.7807 198.279 95.0767 196.744 95.0767C194.17 95.0767 192.142 94.3849 190.658 93.0012C189.123 91.6164 188.381 89.6889 188.381 87.3151C188.381 84.8437 189.37 82.9644 191.35 81.63C193.33 80.2957 196.2 79.6532 200.011 79.6532H203.575V77.0798C203.575 75.8441 203.23 74.8551 202.487 74.1633C201.797 73.4749 200.705 73.1307 199.268 73.1307C198.551 73.131 197.837 73.2138 197.139 73.3773C196.6 73.5392 196.085 73.7707 195.605 74.0657L195.16 76.8836H189.871V71.0483C191.263 70.1465 192.758 69.4146 194.324 68.8684C195.958 68.2752 197.789 67.978 199.769 67.978C202.989 67.978 205.611 68.7693 207.637 70.3518C209.666 71.934 210.656 74.208 210.656 77.1211V87.8979C210.647 88.2776 210.663 88.6574 210.705 89.0349C210.697 89.3821 210.714 89.7295 210.755 90.0744L212.933 90.321V94.573L204.761 94.5834Z" fill="#EC4923"/>
<path d="M225.367 89.1923H232.641L232.939 85.6827H238.333V94.5813H216.607V90.428L229.078 73.9157H222.645L222.398 77.376H216.954V68.4785H237.887V72.4815L225.367 89.1923Z" fill="#EC4923"/>
<path d="M253.111 89.8839C254.111 89.8915 255.098 89.6551 255.986 89.1955C256.877 88.7503 257.569 88.1629 258.015 87.4653V83.4566H254.451C252.916 83.4566 251.778 83.8008 251.036 84.5443C250.245 85.2372 249.849 86.0786 249.848 87.0684C249.837 87.4582 249.911 87.8457 250.065 88.2042C250.219 88.5627 250.449 88.8837 250.739 89.145C251.283 89.6391 252.074 89.8862 253.115 89.8862M259.201 94.5834C259.003 94.1382 258.856 93.693 258.706 93.2479C258.568 92.7927 258.453 92.3309 258.361 91.8642C257.505 92.8361 256.461 93.6263 255.292 94.1875C254.106 94.7807 252.72 95.0767 251.185 95.0767C248.613 95.0767 246.585 94.3849 245.099 93.0012C243.564 91.6164 242.822 89.6889 242.822 87.3151C242.822 84.8437 243.812 82.9644 245.791 81.63C247.77 80.2957 250.641 79.6532 254.452 79.6532H258.016V77.0798C258.016 75.8441 257.671 74.8551 256.928 74.1633C256.238 73.4749 255.145 73.1307 253.708 73.1307C252.992 73.1309 252.278 73.2136 251.581 73.3773C251.041 73.539 250.525 73.7705 250.046 74.0657L249.601 76.8836H244.311V71.0483C245.703 70.1465 247.198 69.4146 248.765 68.8684C250.399 68.2752 252.229 67.978 254.209 67.978C257.429 67.978 260.052 68.7693 262.078 70.3518C264.106 71.934 265.096 74.208 265.096 77.1211V87.8979C265.087 88.2776 265.103 88.6574 265.146 89.0349C265.137 89.3821 265.154 89.7295 265.195 90.0744L267.373 90.321V94.573L259.201 94.5834Z" fill="#EC4923"/>
<path d="M270.997 90.329L274.362 89.6406V73.4208L270.602 72.7325V68.477H280.945L281.241 72.2838C281.835 70.9002 282.627 69.8618 283.617 69.1195C284.557 68.329 285.695 67.9825 286.981 67.9825C287.38 67.97 287.778 68.0035 288.169 68.0823C288.506 68.1095 288.838 68.1757 289.159 68.2797L288.417 74.7047L285.543 74.606C284.508 74.606 283.613 74.8034 282.969 75.1981C282.288 75.5985 281.751 76.2042 281.436 76.9282V89.6371L284.8 90.3255V94.5775H270.997V90.329Z" fill="#EC4923"/>
<path d="M51.5682 34.2364C50.1401 36.9234 48.7212 39.6701 46.3939 41.8202C44.9105 43.2532 42.3487 44.3283 40.2019 42.776C39.512 42.2975 39.2188 41.6998 39.0405 40.9838C38.7979 39.8491 38.8957 38.7144 39.0716 37.6394C39.5499 34.5347 40.6595 31.5494 41.7094 28.6226C42.9408 25.1003 44.3759 21.5768 45.2486 17.9341C45.8684 15.3067 46.1593 12.3214 44.9198 9.57466C42.7546 4.7972 35.9589 3.60857 31.9816 6.11089C29.9831 7.30525 28.5446 9.03656 27.4074 10.948C26.9133 8.66339 25.8364 6.54476 24.281 4.7972C19.8195 -0.278568 11.4336 -1.17463 6.03391 1.39309C1.00674 3.72216 -1.14809 9.69398 0.598543 14.8283C1.97837 18.8898 5.88788 21.7558 10.5885 22.1711C14.8694 22.5291 18.9882 20.4983 20.3933 17.2147C21.0993 15.6016 18.1534 14.1685 17.4462 15.7805C16.4493 18.1693 13.7288 19.5426 10.6437 19.4233C7.27576 19.2443 4.63684 17.155 3.66176 14.3475C2.22904 10.3503 4.09411 5.6336 7.96912 3.78641C12.2328 1.81645 18.964 2.59204 22.1871 6.71208C25.4975 10.9572 24.9088 16.446 23.5152 20.6854C21.0533 28.6271 17.7969 36.2718 15.1212 44.1527C14.8913 44.8698 15.1465 45.6443 15.9606 46.0642C16.6965 46.4221 17.828 46.2432 18.0683 45.5869C20.8521 37.5178 25.8735 23.6076 27.0142 20.3825C28.1548 17.1573 29.7738 11.7236 33.297 8.91724C34.1225 8.25019 35.1062 7.80638 36.1534 7.62855C37.2006 7.45071 38.2761 7.54484 39.2763 7.90186C41.1494 8.55928 42.1382 10.1116 42.4223 11.9622C42.9179 15.1874 41.8473 18.4125 40.7941 21.3382C39.6224 24.8008 38.3035 28.2049 37.1996 31.6641C35.9463 35.4859 33.5327 42.4123 39.3085 45.3976C42.7189 47.1897 46.1765 46.1743 48.5326 44.2032C51.2509 41.935 52.9285 38.6502 54.5831 35.6648C55.3673 34.1125 52.4295 32.7392 51.5682 34.2318" fill="white"/>
<path d="M64.1184 41.4017C62.8294 42.7785 60.954 44.3286 58.4956 43.8501C54.0445 42.8359 54.4423 37.884 54.9655 35.0719C55.4082 32.6235 56.2177 30.3553 57.1836 28.2052C58.0391 26.2352 59.105 24.3238 60.7205 22.8323C62.3407 21.3993 64.7163 20.4435 66.3767 21.0401C68.2682 21.8169 69.3111 23.7283 69.4595 26.475C69.5744 28.9831 68.8673 31.4911 68.1521 33.9384C67.2609 36.5669 66.0375 39.2539 64.1184 41.4029M72.5894 28.2086C72.7181 25.9404 72.5468 23.4908 71.0578 21.3419C68.5028 17.5798 63.1582 17.4008 59.934 19.4901C55.3576 22.5363 53.22 28.149 52.0633 33.0458C50.9974 37.6431 50.9203 44.69 57.8126 46.4809C57.8804 46.4809 58.2311 46.5417 58.2989 46.5417C64.8129 47.6753 68.5223 41.6438 70.3161 37.3448C71.5165 34.535 72.3939 31.3695 72.5894 28.2052V28.2086ZM80.6729 34.2401C79.5402 36.6289 78.203 39.0176 76.3137 40.9279C75.203 42.1222 73.2379 43.9729 71.2049 42.7189C70.4495 42.2416 69.5457 42.1222 68.9547 42.7189C68.474 43.1376 68.5028 44.2104 69.249 44.6303C76.5575 49.168 81.6031 39.8528 83.6222 35.6731C84.4018 34.1174 81.4479 32.6235 80.6729 34.2367V34.2401Z" fill="white"/>
<path d="M100.214 19.0091C98.8339 17.5761 96.2502 18.9494 97.707 20.4421C99.0075 21.8189 98.7557 23.7269 98.5119 25.2196C98.2153 27.3066 96.8308 31.609 96.771 31.6664C95.7258 35.0694 94.3092 38.7121 91.7117 41.3395C90.1191 42.9515 86.9306 44.3856 84.5964 42.0566C82.744 40.2048 83.2499 37.2791 83.7742 35.3688C84.3491 33.3381 85.2357 31.1237 85.9969 28.9794C86.9881 26.1111 88.0563 23.3058 89.0486 20.4398C89.3476 19.7239 89.0912 18.9483 88.2092 18.5284C87.4722 18.1704 86.4097 18.3494 86.1015 19.0068C85.1104 21.8751 84.0502 24.7434 82.9969 27.606C82.1552 30.1129 81.0491 32.6806 80.4983 35.3092C79.8394 38.1155 79.9889 41.7583 82.8095 44.1436C85.9486 46.8317 90.3066 46.3533 93.003 44.3834C96.7894 41.515 98.5878 36.7995 99.9136 32.559C100.719 30.2311 101.506 27.8424 101.744 25.394C101.974 23.3644 102.002 20.8563 100.218 19.0045M108.482 34.2364C107.349 36.6251 106.011 39.0139 104.123 40.9242C103.002 42.0589 101.037 43.9072 98.9362 42.6555C98.19 42.2379 97.2862 42.1185 96.7515 42.6555C96.2111 43.1339 96.3077 44.2078 97.0539 44.6266C104.362 49.1643 109.408 39.8491 111.427 35.6694C112.212 34.1171 109.265 32.6829 108.482 34.2364Z" fill="white"/>
<path d="M120.894 41.4014C119.605 42.7782 117.729 44.3282 115.271 43.8498C110.82 42.8356 111.218 37.8837 111.741 35.0716C112.184 32.6232 112.993 30.355 113.959 28.2049C114.814 26.2349 115.885 24.3235 117.496 22.8308C119.116 21.3978 121.492 20.4421 123.151 21.0387C125.042 21.8154 126.087 23.7269 126.235 26.4736C126.35 28.9816 125.642 31.4897 124.927 33.9369C124.036 36.5654 122.813 39.2525 120.894 41.4014ZM129.365 28.2072C129.494 25.9389 129.322 23.4894 127.833 21.3404C125.278 17.5784 119.934 17.3994 116.709 19.4886C112.133 22.5348 109.995 28.1475 108.839 33.0443C107.773 37.6416 107.696 44.6885 114.588 46.4795C114.656 46.4795 115.005 46.5403 115.074 46.5403C121.588 47.6738 125.297 41.6423 127.09 37.3433C128.292 34.5347 129.169 31.3692 129.36 28.2049L129.365 28.2072ZM137.448 34.2387C136.314 36.6274 134.978 39.0161 133.089 40.9264C131.978 42.1208 130.012 43.9714 127.98 42.7174C127.225 42.2401 126.32 42.1208 125.73 42.7174C125.249 43.1362 125.278 44.2089 126.023 44.6288C133.333 49.1665 138.378 39.8514 140.396 35.6717C141.18 34.117 138.223 32.6232 137.448 34.2364V34.2387Z" fill="white"/>
<path d="M157.107 37.1015C156.294 33.5781 153.419 30.8314 150.992 27.9057C149.914 26.6517 148.594 25.159 148.627 23.6067C148.59 22.472 149.492 20.7992 150.723 20.3815C152.385 19.6656 151.396 17.2172 149.424 17.6945C147.521 18.1718 146.018 19.4855 144.857 20.7992C143.351 22.5316 142.154 24.5016 141.092 26.4727C139.08 30.2348 137.59 34.2952 135.296 37.9976C134.425 39.4306 137.371 40.8659 138.234 39.3744C140.428 35.9106 141.818 32.0889 143.722 28.5058C144.357 27.3114 144.987 26.117 145.703 24.9835C146.584 27.6108 148.977 29.8791 150.807 32.0292C152.964 34.5372 154.567 36.9856 153.926 39.9113C153.506 42.0614 151.764 44.0314 149.124 44.1564C146.415 44.2711 143.651 43.1422 143.121 40.5745C142.718 38.842 139.505 38.7823 139.916 40.5745C140.524 43.2018 142.5 45.4104 145.435 46.3662C148.814 47.5009 152.402 46.9043 154.7 44.9894C156.86 43.0791 157.679 39.9733 157.102 37.1073" fill="white"/>
<path d="M170.825 42.536C168.789 43.4918 166.103 43.3128 164.828 41.2224C162.833 37.9984 163.819 33.759 164.928 30.7725C166.209 27.1298 168.3 23.4296 172.172 21.5767C173.638 20.9204 175.507 20.6806 177.198 21.462C179.253 22.4177 179.792 24.149 179.498 25.8218C179.461 26.0253 179.494 26.2353 179.59 26.4184C179.26 27.3741 178.92 28.2702 178.657 29.2259C178.147 30.7782 177.033 34.1824 176.974 34.242C175.961 37.4063 174.116 40.9298 170.819 42.5418M189.458 34.3017C188.375 36.5711 187.146 38.7763 185.531 40.6911C184.537 41.7662 182.668 43.7958 180.587 43.1395C178.731 42.6014 179.186 39.7951 179.404 38.5411C179.799 35.7944 180.75 33.1073 181.641 30.4799C182.756 27.0758 183.878 23.7325 185.137 20.3835C185.775 18.7715 182.837 17.4004 182.199 19.0067L181.335 21.3404C181.066 20.9227 180.748 20.6233 180.352 20.2653C178.628 18.7738 176.128 18.0556 173.896 18.1749C168.508 18.5925 164.873 22.8927 163.024 26.8337C160.99 30.8941 159.546 36.1489 161.371 40.9263C162.807 44.5094 166.8 46.5402 170.752 45.6441C173.052 45.106 174.908 43.852 176.355 42.1804C176.694 43.4941 177.481 44.6288 179.032 45.4044C181.987 46.8959 184.913 45.5191 186.838 43.852C189.361 41.6423 191.016 38.6569 192.398 35.6716C193.126 34.1766 190.171 32.6828 189.464 34.2959L189.458 34.3017Z" fill="white"/>
<path d="M199.474 43.1394C197.902 43.5571 196.075 43.1991 194.801 42.0047C193.295 40.6279 192.856 38.6603 192.732 36.929C192.514 34.1823 193.446 31.3748 194.579 28.9872C195.861 26.2405 197.684 23.4926 200.654 21.9403C202.104 21.1647 204.075 20.6863 205.962 20.9857C208.47 21.3437 209.791 23.7324 209.676 25.6427C209.636 25.8261 209.665 26.0179 209.759 26.1808C209.651 26.4084 209.574 26.6491 209.529 26.8967C208.659 29.2258 207.79 31.5549 207.066 33.9425C207.084 34.0572 207.025 34.1226 206.976 34.2419C205.862 37.6449 203.686 42.124 199.48 43.1394M212.716 27.6735C213.997 24.0307 215.346 20.388 216.696 16.7452C218.288 12.5058 219.818 8.26074 221.417 4.01564C222.055 2.40939 219.117 1.0326 218.479 2.63885C216.101 8.90898 213.792 15.1791 211.424 21.5089C210.887 20.6725 210.096 19.9566 209.117 19.3588C206.862 17.982 204.125 17.9258 201.813 18.4042C197.384 19.2992 194.339 22.584 192.48 25.9869C190.807 28.8552 189.498 32.3167 189.484 35.7805C189.52 38.2289 190.137 40.9159 191.967 43.066C193.624 44.9763 196.193 46.1707 198.765 46.049C202.028 45.9894 204.507 44.3774 206.29 42.2273C206.413 42.5853 206.595 42.8836 206.718 43.2427C207.753 45.0933 210.031 46.1684 212.185 45.9894C214.884 45.8104 216.858 44.0183 218.306 42.3466C219.971 40.317 221.258 38.0476 222.4 35.7185C223.117 34.1662 220.16 32.6724 219.454 34.2855C218.579 36.1362 217.568 37.9879 216.325 39.6596C215.3 40.9733 214.048 42.5853 212.222 43.1234C207.852 44.437 209.479 37.6885 209.854 36.1362C210.631 33.2208 211.7 30.4144 212.71 27.6677L212.716 27.6735Z" fill="white"/>
<path d="M239.172 37.1015C238.359 33.5781 235.483 30.8314 233.057 27.9057C231.979 26.6517 230.659 25.159 230.693 23.6067C230.654 22.472 231.557 20.7992 232.788 20.3815C234.45 19.6656 233.461 17.2172 231.489 17.6945C229.586 18.1718 228.083 19.4855 226.922 20.7992C225.415 22.5316 224.218 24.5016 223.157 26.4727C221.145 30.2348 219.654 34.2952 217.36 37.9976C216.49 39.4306 219.43 40.8659 220.297 39.3744C222.492 35.9106 223.882 32.0889 225.787 28.5058C226.421 27.3114 227.051 26.117 227.768 24.9835C228.649 27.6108 231.041 29.8791 232.871 32.0292C235.029 34.5372 236.632 36.9856 235.99 39.9113C235.571 42.0614 233.829 44.0314 231.189 44.1564C228.48 44.2711 225.715 43.1422 225.184 40.5745C224.783 38.842 221.57 38.7823 221.981 40.5745C222.589 43.2018 224.564 45.4104 227.5 46.3662C230.878 47.5009 234.468 46.9043 236.764 44.9894C238.925 43.0791 239.744 39.9733 239.166 37.1073" fill="white"/>
<path d="M272.699 34.8326C271.557 37.1616 270.192 39.3714 268.295 41.222C266.752 42.7135 264.704 44.0284 262.104 43.9687C257.86 43.854 256.916 38.5946 256.027 35.9076C256.018 35.8479 255.949 35.8479 255.941 35.7929C258.067 35.4349 260.006 34.3013 261.427 33.3445C264.251 31.3149 266.791 28.3284 266.932 24.8049C266.987 22.0582 265.106 19.1326 261.666 18.4763C258.488 17.7592 255.513 19.2519 253.366 20.8042C253.18 20.9247 253.003 21.1037 252.817 21.223C253.668 18.7746 254.518 16.3262 255.438 13.8801C256.511 10.6561 257.661 7.49065 258.879 4.32633C259.454 2.71319 256.503 1.28018 255.933 2.89217C251.395 15.0745 247.217 27.3749 243.039 39.6766C242.519 41.1681 242.075 42.7216 241.555 44.2142C241.325 44.9313 241.511 45.7058 242.393 46.1257C243.13 46.4836 244.262 46.3047 244.502 45.6484C246.144 40.8113 247.787 35.9741 249.43 31.137C249.481 31.0223 249.598 30.8984 249.649 30.7791C250.531 28.3671 251.973 26.1979 253.857 24.4493C255.4 22.9577 257.479 21.4043 259.951 21.106C261.551 20.8673 263.306 21.6429 263.639 23.3754C264.229 25.8823 262.365 28.3903 260.636 30.0035C259.437 31.0774 257.958 32.0927 256.346 32.6894C255.631 32.9291 254.851 33.1678 254.092 33.1081H254.023C252.873 32.2717 251.113 31.9138 250.428 33.2229C250.052 33.8791 250.58 34.6559 251.326 35.0735C251.749 35.3544 252.219 35.5568 252.713 35.6713C252.828 35.9696 252.951 36.3275 253.058 36.5673C253.332 37.4622 253.615 38.418 253.957 39.314C254.647 41.1646 255.489 43.0761 257.081 44.5688C261.24 48.5695 267.231 46.3001 270.354 43.5534C272.701 41.5226 274.342 38.8952 275.634 36.2105C276.419 34.6582 273.481 33.2848 272.697 34.8337" fill="white"/>
<path d="M285.427 34.2965C284.412 36.566 283.182 38.7711 281.499 40.686C280.505 41.761 278.705 43.7907 276.627 43.1344C274.703 42.5963 275.159 39.7899 275.375 38.5359C275.835 35.7892 276.799 33.1618 277.623 30.5345C278.736 27.1304 279.922 23.787 281.187 20.438C281.826 18.8317 278.888 17.455 278.249 19.0612C276.923 22.4057 275.818 25.8683 274.637 29.2724C273.673 32.3174 272.496 35.3039 272.107 38.5279C271.851 40.8569 272.114 43.9019 275.001 45.3946C278.025 46.8861 280.883 45.5093 282.807 43.8423C285.33 41.6325 287.054 38.6472 288.376 35.7215C289.157 34.1772 286.142 32.7442 285.427 34.2965Z" fill="white"/>
<path d="M10.5258 90.3295L13.8903 89.6411V73.4214L10.1797 72.733V68.4776H20.4697L20.8147 72.1857C21.6101 70.9115 22.697 69.8436 23.986 69.0696C25.2727 68.3284 26.7077 67.9819 28.2922 67.9819C30.915 67.9819 32.9928 68.8229 34.4773 70.4544C35.9618 72.1352 36.7046 74.7064 36.7046 78.2654V89.6365L40.0702 90.3249V94.5769H26.6088V90.3295L29.6272 89.6411V78.2666C29.6272 76.5364 29.2822 75.3007 28.5394 74.5584C27.8495 73.8172 26.7572 73.4707 25.3198 73.4707C24.3804 73.4707 23.5882 73.6199 22.8454 74.0146C22.1005 74.4057 21.4569 74.9642 20.9653 75.6461V89.6377L23.84 90.3261V94.5781H10.5258V90.3295Z" fill="#56C4CF"/>
<path d="M50.0639 81.7756C50.0639 84.1494 50.5089 86.0769 51.3506 87.5122C52.1923 88.9475 53.5284 89.6921 55.4084 89.6921C57.2401 89.6921 58.5763 88.9498 59.4168 87.5122C60.2574 86.0746 60.6541 84.1505 60.6541 81.7756V81.2811C60.6541 78.9577 60.2585 77.0796 59.3674 75.5961C58.5268 74.1631 57.1907 73.4162 55.359 73.4162C53.5272 73.4162 52.1923 74.1585 51.3506 75.5961C50.5089 77.0796 50.0639 78.9577 50.0639 81.2811V81.7756ZM43.0371 81.2811C43.0371 77.3802 44.126 74.2124 46.3027 71.6906C48.4805 69.2177 51.4993 67.9817 55.359 67.9824C59.2187 67.9832 62.2374 69.2192 64.4152 71.6906C66.5931 74.1631 67.682 77.3756 67.682 81.2811V81.7756C67.682 85.7315 66.5931 88.889 64.4152 91.3672C62.2374 93.8454 59.2202 95.0742 55.4084 95.0742C51.4989 95.0742 48.4805 93.8385 46.3027 91.3672C44.1249 88.8959 43.0371 85.7315 43.0371 81.7756V81.2811Z" fill="#56C4CF"/>
<path fill-rule="evenodd" clip-rule="evenodd" d="M293.257 23.291C291.671 24.4314 290.75 26.484 289.158 30.7486L291.589 28.9209L291.668 28.7339L293.001 23.4929C293.085 23.4241 293.17 23.3587 293.257 23.2956M299.062 21.648C296.386 22.0324 294.717 22.3445 293.466 23.1545L293.63 23.0524L292.267 28.4127L293.851 27.2229V27.2045H293.867L296.844 24.9695L296.831 24.9626L298.505 21.7283L299.062 21.648ZM301.784 21.2637C300.794 21.4071 299.907 21.5276 299.108 21.6423L297.74 24.3018L301.784 21.2637ZM299.08 28.3886C300.115 26.9326 300.913 24.7883 302.001 21.7203L294.507 27.3514L299.08 28.3886ZM298.746 28.8268L293.984 27.7438L289.615 31.0297C289.105 31.0205 295.62 31.9992 298.748 28.8268H298.746Z" fill="#8CC886"/>
<path d="M280.904 12.6925C281.224 13.0325 281.638 13.2701 282.094 13.3752C282.55 13.4804 283.026 13.4484 283.464 13.2832C283.901 13.1181 284.28 12.8273 284.552 12.4475C284.824 12.0678 284.976 11.6161 284.991 11.1497C285.006 10.6832 284.881 10.2229 284.634 9.82693C284.386 9.43096 284.027 9.11709 283.601 8.92501C283.174 8.73292 282.701 8.67124 282.239 8.74777C281.778 8.82429 281.35 9.03558 281.008 9.35493C280.552 9.78415 280.284 10.3765 280.265 11.0021C280.245 11.6278 280.475 12.2356 280.904 12.6925Z" fill="white"/>
</svg>
