<svg width="260" height="82" viewBox="0 0 260 82" fill="none" xmlns="http://www.w3.org/2000/svg">
<path d="M72.651 50.332H79.0856L79.1282 50.4595L73.3766 55.8645H68.518L72.651 50.332ZM72.0976 77.3591C73.1628 77.3591 74.0567 77.0184 74.6962 76.4227C75.3347 75.7837 75.6763 74.9332 75.6763 73.8694H81.1754L81.218 73.9968C81.3031 76.2953 80.4508 78.1671 78.6619 79.7001C76.9147 81.2321 74.7022 81.9977 72.1006 81.9977C68.7348 81.9977 66.1352 80.9338 64.3464 78.8062C62.514 76.72 61.6191 73.9968 61.6191 70.6769V70.0379C61.6191 66.718 62.5566 63.9947 64.391 61.8661C66.2659 59.7375 68.9496 58.6737 72.4006 58.6737C74.1904 58.6737 75.8515 58.9295 77.2582 59.4826C78.7005 60.0358 79.8944 60.7598 80.8784 61.7822L80.9635 67.7828H76.0168L75.0378 64.2516C74.6956 63.972 74.306 63.7559 73.8875 63.6135C73.4108 63.4351 72.9046 63.3483 72.3956 63.3576C70.6484 63.3576 69.4555 63.9503 68.7328 65.2344C68.0508 66.4691 67.6677 68.086 67.6677 70.0438V70.6829C67.6677 72.6831 68.0082 74.3 68.6477 75.5347C69.3278 76.72 70.4355 77.3591 72.0976 77.3591Z" fill="#56C4CF"/>
<path d="M84.2374 77.9124L87.135 77.3198V63.3558L83.9395 62.7632V59.0996H92.8014L93.0984 62.292C93.7826 61.1952 94.7176 60.2759 95.8266 59.6092C96.9344 58.9712 98.1698 58.6729 99.533 58.6729C101.791 58.6729 103.581 59.3969 104.859 60.8015C106.137 62.2485 106.776 64.4621 106.776 67.5261V77.3158L109.674 77.9085V81.5691H98.0847V77.9124L100.683 77.3198V67.5271C100.683 66.0376 100.386 64.9738 99.7468 64.3347C99.1528 63.6966 98.2124 63.3983 96.975 63.3983C96.1652 63.3983 95.4841 63.5267 94.8446 63.8665C94.203 64.2032 93.6486 64.684 93.2251 65.2711V77.3168L95.6999 77.9095V81.5701H84.2374V77.9124Z" fill="#56C4CF"/>
<path d="M121.049 53.6942H114.957V49.1387H121.049V53.6942ZM112.017 77.9121L114.957 77.3195V63.3555L111.719 62.7628V59.0992H121.049V77.3165L123.946 77.9092V81.5698H112.017V77.9121Z" fill="#56C4CF"/>
<path d="M152.514 70.5059C152.514 68.3328 152.173 66.5904 151.535 65.3132C150.896 64.0361 149.788 63.398 148.212 63.398C147.274 63.398 146.507 63.5689 145.826 63.9906C145.17 64.3912 144.639 64.9657 144.292 65.6501V75.1839C144.653 75.8358 145.183 76.3794 145.826 76.7584C146.507 77.0995 147.316 77.2701 148.254 77.2701C149.83 77.2701 150.938 76.716 151.578 75.6521C152.171 74.5458 152.514 72.9704 152.514 70.9277V70.5059ZM158.565 70.9316C158.565 74.29 157.797 76.9757 156.306 78.9759C154.816 81.0186 152.644 81.9975 149.83 81.9975C148.51 81.9975 147.355 81.7427 146.379 81.1895C145.403 80.6364 144.59 79.8274 143.905 78.806L143.478 81.5718H138.238V53.4384L135 52.8003V49.1387H144.288V61.4857C144.896 60.6185 145.698 59.9046 146.631 59.4005C147.522 58.9323 148.591 58.6765 149.784 58.6765C152.639 58.6765 154.812 59.7403 156.303 61.9114C157.793 64.04 158.561 66.9342 158.561 70.5049L158.565 70.9316Z" fill="#EC4923"/>
<path d="M171.041 77.5287C171.902 77.5352 172.751 77.3318 173.515 76.9361C174.283 76.5528 174.879 76.0471 175.262 75.4465V71.9953H172.193C170.872 71.9953 169.892 72.2916 169.253 72.9317C168.572 73.5283 168.231 74.2527 168.23 75.1048C168.221 75.4404 168.284 75.7741 168.417 76.0828C168.549 76.3915 168.747 76.6678 168.997 76.8926C169.466 77.318 170.148 77.5307 171.043 77.5307M176.283 81.5746C176.112 81.1914 175.986 80.8081 175.857 80.4249C175.738 80.033 175.639 79.6354 175.56 79.2336C174.822 80.0699 173.924 80.7501 172.919 81.2338C171.895 81.7445 170.703 81.9993 169.381 81.9993C167.166 81.9993 165.419 81.4037 164.142 80.2125C162.82 79.0203 162.182 77.3608 162.182 75.3171C162.182 73.1895 163.033 71.5716 164.738 70.4228C166.442 69.274 168.913 68.7209 172.194 68.7209H175.263V66.5053C175.263 65.4415 174.966 64.5901 174.326 63.9945C173.732 63.4018 172.792 63.1055 171.554 63.1055C170.937 63.1058 170.323 63.177 169.722 63.3178C169.258 63.4572 168.814 63.6565 168.401 63.9105L168.018 66.3364H163.465V61.3127C164.663 60.5363 165.95 59.9062 167.299 59.4359C168.705 58.9253 170.281 58.6694 171.986 58.6694C174.758 58.6694 177.016 59.3507 178.76 60.7131C180.506 62.0752 181.359 64.033 181.359 66.5409V75.8189C181.351 76.1458 181.365 76.4728 181.401 76.7978C181.394 77.0967 181.408 77.3958 181.444 77.6927L183.319 77.9051V81.5657L176.283 81.5746Z" fill="#EC4923"/>
<path d="M194.024 76.9336H200.286L200.543 73.912H205.186V81.5731H186.482V77.9974L197.218 63.7816H191.681L191.468 66.7607H186.78V59.1006H204.802V62.5469L194.024 76.9336Z" fill="#EC4923"/>
<path d="M217.909 77.5287C218.77 77.5352 219.619 77.3318 220.384 76.9361C221.151 76.5528 221.747 76.0471 222.131 75.4465V71.9953H219.062C217.74 71.9953 216.761 72.2916 216.122 72.9317C215.441 73.5283 215.1 74.2527 215.099 75.1048C215.09 75.4404 215.154 75.774 215.286 76.0827C215.419 76.3913 215.617 76.6676 215.867 76.8926C216.334 77.318 217.016 77.5307 217.912 77.5307M223.151 81.5746C222.981 81.1914 222.854 80.8081 222.726 80.4249C222.607 80.033 222.508 79.6354 222.429 79.2336C221.691 80.0704 220.793 80.7506 219.787 81.2338C218.765 81.7445 217.572 81.9993 216.251 81.9993C214.036 81.9993 212.29 81.4037 211.011 80.2125C209.689 79.0203 209.051 77.3608 209.051 75.3171C209.051 73.1895 209.903 71.5716 211.607 70.4228C213.31 69.274 215.782 68.7209 219.063 68.7209H222.132V66.5053C222.132 65.4415 221.835 64.5901 221.194 63.9945C220.6 63.4018 219.66 63.1055 218.423 63.1055C217.806 63.1056 217.191 63.1769 216.591 63.3178C216.127 63.457 215.682 63.6563 215.27 63.9105L214.886 66.3364H210.333V61.3127C211.531 60.5363 212.818 59.9062 214.167 59.4359C215.573 58.9253 217.149 58.6694 218.854 58.6694C221.626 58.6694 223.884 59.3507 225.628 60.7131C227.375 62.0752 228.227 64.033 228.227 66.5409V75.8189C228.219 76.1458 228.233 76.4728 228.269 76.7978C228.262 77.0967 228.277 77.3958 228.312 77.6927L230.187 77.9051V81.5657L223.151 81.5746Z" fill="#EC4923"/>
<path d="M233.307 77.9117L236.204 77.319V63.3551L232.967 62.7624V59.0988H241.871L242.127 62.3762C242.638 61.185 243.32 60.291 244.172 59.652C244.982 58.9714 245.961 58.6731 247.068 58.6731C247.412 58.6623 247.755 58.6912 248.091 58.759C248.381 58.7824 248.667 58.8394 248.943 58.9289L248.305 64.4604L245.83 64.3754C244.939 64.3754 244.169 64.5453 243.615 64.8851C243.028 65.2298 242.565 65.7513 242.294 66.3747V77.3161L245.191 77.9087V81.5694H233.307V77.9117Z" fill="#EC4923"/>
<path d="M44.3963 29.6205C43.1668 31.9338 41.9452 34.2985 39.9416 36.1496C38.6646 37.3833 36.459 38.3088 34.6108 36.9724C34.0168 36.5605 33.7644 36.0459 33.611 35.4295C33.4021 34.4526 33.4862 33.4757 33.6377 32.5502C34.0495 29.8773 35.0048 27.3071 35.9086 24.7874C36.9688 21.7549 38.2043 18.7215 38.9556 15.5854C39.4892 13.3234 39.7397 10.7533 38.6725 8.38857C36.8085 4.27553 30.9579 3.25221 27.5337 5.40652C25.8132 6.43478 24.5748 7.92531 23.5957 9.57092C23.1703 7.60404 22.2432 5.78006 20.9041 4.27553C17.0631 -0.0943179 9.8435 -0.865758 5.19474 1.34485C0.866729 3.35 -0.988417 8.4913 0.515301 12.9115C1.70323 16.4082 5.06902 18.8756 9.11589 19.2332C12.8014 19.5414 16.3474 17.793 17.5571 14.9661C18.1649 13.5773 15.6287 12.3436 15.0199 13.7314C14.1616 15.7879 11.8194 16.9702 9.16341 16.8675C6.26388 16.7134 3.99197 14.9147 3.1525 12.4977C1.91903 9.05629 3.52472 4.99561 6.86081 3.40532C10.5315 1.70933 16.3266 2.37706 19.1014 5.92411C21.9514 9.57882 21.4446 14.3043 20.2448 17.954C18.1253 24.7913 15.3218 31.3728 13.0182 38.1577C12.8202 38.775 13.04 39.4418 13.7409 39.8033C14.3745 40.1115 15.3486 39.9574 15.5554 39.3924C17.9521 32.4455 22.2752 20.4699 23.2572 17.6933C24.2392 14.9167 25.633 10.2386 28.6662 7.82258C29.3769 7.24829 30.2238 6.86621 31.1254 6.71311C32.0269 6.56001 32.9528 6.64104 33.8139 6.94841C35.4265 7.5144 36.2778 8.85084 36.5224 10.4441C36.949 13.2207 36.0274 15.9973 35.1206 18.5161C34.1119 21.4971 32.9764 24.4278 32.0261 27.4059C30.947 30.6961 28.8691 36.6593 33.8416 39.2294C36.7778 40.7723 39.7545 39.8981 41.7829 38.2011C44.1231 36.2483 45.5674 33.4204 46.992 30.8502C47.6671 29.5138 45.1378 28.3314 44.3963 29.6165" fill="#261A54"/>
<path d="M55.2018 35.7893C54.0921 36.9746 52.4775 38.309 50.361 37.8971C46.5289 37.024 46.8715 32.7608 47.3219 30.3398C47.703 28.2319 48.3999 26.2791 49.2315 24.428C49.968 22.732 50.8857 21.0864 52.2765 19.8024C53.6713 18.5686 55.7166 17.7458 57.146 18.2595C58.7745 18.9282 59.6724 20.5738 59.8001 22.9385C59.8991 25.0977 59.2902 27.257 58.6745 29.3639C57.9073 31.6268 56.854 33.9402 55.2018 35.7902M62.4947 24.431C62.6056 22.4782 62.4581 20.3693 61.1761 18.5193C58.9764 15.2804 54.3752 15.1263 51.5994 16.925C47.6594 19.5475 45.8192 24.3796 44.8233 28.5954C43.9056 32.5533 43.8393 38.6202 49.773 40.1621C49.8314 40.1621 50.1333 40.2144 50.1917 40.2144C55.7997 41.1903 58.9933 35.9977 60.5376 32.2965C61.5711 29.8775 62.3264 27.1523 62.4947 24.428V24.431ZM69.454 29.6237C68.4789 31.6802 67.3276 33.7367 65.7011 35.3813C64.7448 36.4096 63.053 38.0028 61.3028 36.9232C60.6524 36.5123 59.8743 36.4096 59.3655 36.9232C58.9517 37.2837 58.9764 38.2073 59.6189 38.5688C65.911 42.4754 70.2548 34.4558 71.9931 30.8574C72.6643 29.518 70.1212 28.2319 69.454 29.6207V29.6237Z" fill="#261A54"/>
<path d="M86.2763 16.5108C85.0883 15.2771 82.8639 16.4594 84.1182 17.7445C85.2378 18.9298 85.021 20.5725 84.8112 21.8575C84.5558 23.6543 83.3639 27.3584 83.3124 27.4078C82.4125 30.3375 81.1929 33.4736 78.9567 35.7356C77.5856 37.1234 74.8405 38.3581 72.8309 36.3529C71.2361 34.7587 71.6717 32.2399 72.1231 30.5953C72.6181 28.8469 73.3813 26.9406 74.0367 25.0944C74.89 22.625 75.8096 20.21 76.664 17.7425C76.9213 17.1262 76.7006 16.4584 75.9413 16.0969C75.3067 15.7887 74.392 15.9428 74.1267 16.5088C73.2734 18.9782 72.3607 21.4476 71.4539 23.9121C70.7293 26.0703 69.7769 28.281 69.3028 30.5439C68.7355 32.96 68.8642 36.0961 71.2925 38.1497C73.9951 40.464 77.7469 40.0521 80.0684 38.3561C83.3282 35.8867 84.8765 31.827 86.0179 28.1762C86.7109 26.1721 87.389 24.1156 87.5939 22.0077C87.7919 20.2603 87.8156 18.1011 86.2802 16.5068M93.3949 29.6204C92.4188 31.6769 91.2675 33.7334 89.6421 35.378C88.6769 36.3549 86.9851 37.9462 85.1764 36.8685C84.534 36.509 83.7559 36.4063 83.2956 36.8685C82.8303 37.2804 82.9134 38.205 83.5559 38.5655C89.848 42.4721 94.1918 34.4525 95.9302 30.8541C96.6063 29.5176 94.0691 28.2829 93.3949 29.6204Z" fill="#261A54"/>
<path d="M104.081 35.7893C102.971 36.9746 101.356 38.309 99.2399 37.8971C95.4078 37.024 95.7504 32.7608 96.2008 30.3398C96.5819 28.2319 97.2788 26.2791 98.1104 24.428C98.8469 22.7321 99.7685 21.0865 101.155 19.8014C102.55 18.5677 104.595 17.7449 106.024 18.2585C107.652 18.9272 108.551 20.5728 108.679 22.9375C108.778 25.0968 108.168 27.256 107.553 29.3629C106.786 31.6259 105.733 33.9392 104.081 35.7893ZM111.374 24.43C111.484 22.4772 111.337 20.3684 110.055 18.5183C107.855 15.2794 103.254 15.1253 100.478 16.924C96.5383 19.5465 94.6981 24.3787 93.7022 28.5944C92.7845 32.5524 92.7182 38.6192 98.6519 40.1611C98.7103 40.1611 99.0112 40.2134 99.0706 40.2134C104.679 41.1893 107.871 35.9967 109.415 32.2956C110.45 29.8775 111.205 27.1523 111.37 24.428L111.374 24.43ZM118.333 29.6227C117.357 31.6792 116.206 33.7357 114.58 35.3803C113.624 36.4086 111.931 38.0018 110.182 36.9222C109.531 36.5113 108.752 36.4086 108.244 36.9222C107.831 37.2828 107.855 38.2063 108.497 38.5678C114.79 42.4744 119.134 34.4548 120.871 30.8564C121.545 29.518 119 28.2319 118.333 29.6207V29.6227Z" fill="#261A54"/>
<path d="M135.257 32.0868C134.557 29.0534 132.081 26.6887 129.992 24.1699C129.064 23.0903 127.927 21.8052 127.956 20.4688C127.924 19.4919 128.701 18.0517 129.761 17.6922C131.191 17.0758 130.34 14.968 128.642 15.3789C127.004 15.7898 125.71 16.9208 124.71 18.0517C123.413 19.5433 122.383 21.2393 121.469 22.9362C119.737 26.1751 118.454 29.6708 116.479 32.8583C115.729 34.092 118.266 35.3277 119.008 34.0436C120.897 31.0615 122.094 27.7713 123.733 24.6865C124.279 23.6583 124.822 22.63 125.439 21.6541C126.197 23.9161 128.257 25.8689 129.833 27.7199C131.69 29.8792 133.07 31.9871 132.518 34.5059C132.156 36.3569 130.657 38.0529 128.384 38.1606C126.051 38.2593 123.672 37.2874 123.215 35.0768C122.869 33.5853 120.103 33.5339 120.456 35.0768C120.98 37.3388 122.681 39.2402 125.208 40.063C128.116 41.0399 131.206 40.5263 133.184 38.8777C135.044 37.2331 135.749 34.5592 135.252 32.0918" fill="#261A54"/>
<path d="M147.067 36.7663C145.315 37.5891 143.003 37.4351 141.905 35.6354C140.187 32.8597 141.036 29.21 141.991 26.6388C143.094 23.5027 144.894 20.3172 148.228 18.7219C149.49 18.1569 151.099 17.9505 152.555 18.6232C154.324 19.446 154.788 20.9365 154.535 22.3766C154.503 22.5519 154.531 22.7326 154.614 22.8903C154.33 23.7131 154.037 24.4845 153.811 25.3073C153.371 26.6438 152.412 29.5745 152.362 29.6258C151.49 32.3501 149.901 35.3835 147.063 36.7713M163.109 29.6772C162.177 31.631 161.119 33.5294 159.729 35.178C158.872 36.1035 157.264 37.8509 155.472 37.2859C153.874 36.8226 154.266 34.4066 154.453 33.327C154.794 30.9623 155.613 28.6489 156.38 26.387C157.339 23.4563 158.305 20.5779 159.389 17.6947C159.939 16.3069 157.409 15.1265 156.86 16.5093L156.117 18.5185C155.885 18.1589 155.611 17.9011 155.27 17.5929C153.785 16.3088 151.633 15.6905 149.712 15.7932C145.073 16.1528 141.944 19.8549 140.352 23.2478C138.601 26.7435 137.357 31.2675 138.928 35.3805C140.165 38.4653 143.603 40.2136 147.005 39.4422C148.985 38.9789 150.583 37.8993 151.829 36.4601C152.12 37.5911 152.798 38.568 154.134 39.2357C156.678 40.5198 159.196 39.3345 160.853 37.8993C163.026 35.9969 164.451 33.4267 165.641 30.8566C166.267 29.5695 163.723 28.2835 163.114 29.6722L163.109 29.6772Z" fill="#261A54"/>
<path d="M171.731 37.2851C170.378 37.6447 168.805 37.3365 167.708 36.3082C166.412 35.1229 166.033 33.4289 165.926 31.9384C165.739 29.5737 166.541 27.1566 167.517 25.1011C168.621 22.7364 170.19 20.3707 172.747 19.0343C173.995 18.3666 175.692 17.9547 177.317 18.2125C179.476 18.5207 180.613 20.5772 180.514 22.2218C180.48 22.3797 180.505 22.5448 180.585 22.6851C180.493 22.881 180.426 23.0882 180.387 23.3014C179.639 25.3066 178.891 27.3117 178.267 29.3673C178.283 29.466 178.232 29.5223 178.19 29.6251C177.231 32.5548 175.358 36.411 171.736 37.2851M183.132 23.9701C184.234 20.834 185.396 17.6979 186.558 14.5617C187.929 10.9119 189.245 7.25723 190.622 3.60251C191.172 2.21965 188.643 1.03434 188.093 2.4172C186.046 7.81531 184.058 13.2134 182.019 18.6629C181.557 17.9428 180.876 17.3265 180.033 16.8118C178.092 15.6265 175.736 15.5781 173.745 15.99C169.932 16.7605 167.31 19.5884 165.71 22.5181C164.269 24.9875 163.143 27.9676 163.131 30.9496C163.162 33.0575 163.693 35.3709 165.268 37.2219C166.695 38.8665 168.906 39.8948 171.121 39.7901C173.93 39.7387 176.064 38.3509 177.599 36.4999C177.705 36.8081 177.862 37.0649 177.968 37.374C178.859 38.9673 180.82 39.8928 182.674 39.7387C184.998 39.5846 186.697 38.0418 187.944 36.6026C189.377 34.8553 190.486 32.9015 191.469 30.8963C192.086 29.5599 189.54 28.2738 188.933 29.6626C188.179 31.2558 187.309 32.8501 186.239 34.2893C185.356 35.4202 184.278 36.8081 182.706 37.2713C178.944 38.4023 180.345 32.5923 180.668 31.2559C181.337 28.746 182.256 26.3299 183.127 23.9652L183.132 23.9701Z" fill="#261A54"/>
<path d="M205.909 32.0868C205.21 29.0534 202.734 26.6887 200.645 24.1699C199.716 23.0903 198.58 21.8052 198.61 20.4688C198.576 19.4919 199.353 18.0517 200.413 17.6922C201.844 17.0758 200.992 14.968 199.295 15.3789C197.656 15.7898 196.362 16.9208 195.363 18.0517C194.066 19.5433 193.035 21.2393 192.122 22.9362C190.389 26.1751 189.106 29.6708 187.131 32.8583C186.382 34.092 188.913 35.3277 189.66 34.0436C191.549 31.0615 192.746 27.7713 194.386 24.6865C194.932 23.6583 195.474 22.63 196.091 21.6541C196.85 23.9161 198.91 25.8689 200.485 27.7199C202.343 29.8792 203.723 31.9871 203.17 34.5059C202.809 36.3569 201.309 38.0529 199.036 38.1606C196.704 38.2593 194.324 37.2874 193.867 35.0768C193.521 33.5853 190.755 33.5339 191.109 35.0768C191.633 37.3388 193.333 39.2402 195.861 40.063C198.769 41.0399 201.86 40.5263 203.837 38.8777C205.697 37.2331 206.401 34.5592 205.904 32.0918" fill="#261A54"/>
<path d="M234.773 30.1335C233.79 32.1386 232.615 34.041 230.981 35.6343C229.653 36.9184 227.89 38.0504 225.652 37.999C221.998 37.9002 221.185 33.3723 220.42 31.059C220.412 31.0076 220.352 31.0076 220.346 30.9602C222.176 30.652 223.845 29.6761 225.069 28.8523C227.5 27.105 229.687 24.5339 229.808 21.5004C229.856 19.1357 228.236 16.617 225.274 16.052C222.538 15.4346 219.977 16.7197 218.129 18.0561C217.969 18.1598 217.816 18.3139 217.656 18.4167C218.388 16.3088 219.121 14.2009 219.913 12.095C220.837 9.31938 221.826 6.59415 222.875 3.86991C223.37 2.48112 220.83 1.2474 220.339 2.63521C216.432 13.1232 212.835 23.713 209.238 34.3038C208.79 35.5879 208.408 36.9253 207.96 38.2104C207.762 38.8277 207.923 39.4945 208.682 39.856C209.317 40.1642 210.291 40.0101 210.498 39.4451C211.911 35.2807 213.326 31.1163 214.74 26.9519C214.784 26.8531 214.885 26.7464 214.929 26.6437C215.688 24.5672 216.93 22.6997 218.552 21.1942C219.88 19.9101 221.67 18.5727 223.798 18.3159C225.175 18.1104 226.686 18.7782 226.973 20.2697C227.481 22.4279 225.876 24.5872 224.387 25.976C223.356 26.9005 222.082 27.7747 220.694 28.2883C220.079 28.4948 219.407 28.7002 218.754 28.6489H218.694C217.704 27.9288 216.189 27.6206 215.6 28.7476C215.276 29.3126 215.73 29.9814 216.373 30.3409C216.737 30.5827 217.141 30.757 217.567 30.8555C217.666 31.1123 217.772 31.4205 217.864 31.627C218.099 32.3974 218.343 33.2202 218.638 33.9917C219.232 35.5849 219.956 37.2305 221.328 38.5156C224.908 41.9599 230.066 40.0061 232.754 37.6414C234.775 35.8931 236.188 33.6311 237.3 31.3198C237.975 29.9833 235.446 28.801 234.771 30.1345" fill="#261A54"/>
<path d="M245.732 29.6723C244.858 31.6261 243.799 33.5246 242.35 35.1732C241.495 36.0987 239.945 37.8461 238.156 37.2811C236.5 36.8178 236.892 34.4017 237.078 33.3221C237.474 30.9574 238.304 28.6954 239.013 26.4335C239.971 23.5028 240.993 20.6245 242.082 17.7412C242.631 16.3583 240.102 15.173 239.553 16.5559C238.41 19.4352 237.459 22.4163 236.442 25.3469C235.613 27.9685 234.599 30.5396 234.264 33.3152C234.044 35.3204 234.27 37.9419 236.756 39.2269C239.36 40.511 241.82 39.3257 243.477 37.8905C245.649 35.9881 247.133 33.4179 248.271 30.8991C248.943 29.5696 246.348 28.3359 245.732 29.6723Z" fill="#261A54"/>
<path d="M9.06164 77.9124L11.9582 77.3198V63.3558L8.76367 62.7632V59.0996H17.6226L17.9196 62.292C18.6044 61.195 19.5401 60.2756 20.6499 59.6092C21.7576 58.9712 22.9931 58.6729 24.3572 58.6729C26.6152 58.6729 28.4041 59.3969 29.6821 60.8015C30.9601 62.2485 31.5996 64.4621 31.5996 67.5261V77.3158L34.4971 77.9085V81.5691H22.9079V77.9124L25.5065 77.3198V67.5271C25.5065 66.0376 25.2095 64.9738 24.57 64.3347C23.9761 63.6966 23.0356 63.3983 21.7982 63.3983C20.9894 63.3983 20.3074 63.5267 19.6679 63.8665C19.0266 64.2032 18.4725 64.6841 18.0493 65.2711V77.3168L20.5241 77.9095V81.5701H9.06164V77.9124Z" fill="#56C4CF"/>
<path d="M43.1003 70.5482C43.1003 72.5919 43.4834 74.2513 44.208 75.487C44.9327 76.7227 46.083 77.3637 47.7015 77.3637C49.2785 77.3637 50.4288 76.7247 51.1525 75.487C51.8761 74.2493 52.2176 72.5929 52.2176 70.5482V70.1225C52.2176 68.1223 51.8771 66.5053 51.1099 65.2281C50.3863 63.9944 49.2359 63.3514 47.659 63.3514C46.082 63.3514 44.9327 63.9905 44.208 65.2281C43.4834 66.5053 43.1003 68.1223 43.1003 70.1225V70.5482ZM37.0508 70.1225C37.0508 66.7641 37.9883 64.0369 39.8622 61.8658C41.7372 59.7368 44.3361 58.6727 47.659 58.6733C50.9819 58.674 53.5808 59.7381 55.4557 61.8658C57.3307 63.9944 58.2682 66.7601 58.2682 70.1225V70.5482C58.2682 73.954 57.3307 76.6723 55.4557 78.8059C53.5808 80.9394 50.9832 81.9973 47.7015 81.9973C44.3357 81.9973 41.7372 80.9335 39.8622 78.8059C37.9873 76.6782 37.0508 73.954 37.0508 70.5482V70.1225Z" fill="#56C4CF"/>
<path fill-rule="evenodd" clip-rule="evenodd" d="M252.473 20.1975C251.106 21.1794 250.313 22.9465 248.943 26.618L251.036 25.0445L251.104 24.8835L252.252 20.3714C252.324 20.3121 252.397 20.2558 252.473 20.2015M257.47 18.783C255.166 19.1139 253.729 19.3826 252.652 20.08L252.793 19.9921L251.62 24.6069L252.983 23.5826V23.5668H252.997L255.56 21.6426L255.549 21.6367L256.991 18.8522L257.47 18.783ZM259.813 18.4521C258.961 18.5756 258.197 18.6793 257.509 18.7781L256.331 21.0677L259.813 18.4521ZM257.486 24.5861C258.376 23.3327 259.064 21.4865 260 18.8453L253.549 23.6932L257.486 24.5861ZM257.197 24.9635L253.098 24.031L249.336 26.86C248.898 26.8521 254.507 27.6946 257.199 24.9635H257.197Z" fill="#8CC886"/>
<path d="M241.836 11.073C242.112 11.3657 242.469 11.5703 242.861 11.6608C243.253 11.7513 243.664 11.7238 244.04 11.5816C244.417 11.4395 244.743 11.1891 244.977 10.8621C245.211 10.5352 245.343 10.1463 245.355 9.74477C245.368 9.34319 245.261 8.9469 245.048 8.606C244.835 8.26509 244.525 7.99488 244.158 7.82951C243.791 7.66414 243.383 7.61104 242.986 7.67692C242.589 7.7428 242.22 7.9247 241.926 8.19964C241.533 8.56917 241.303 9.07914 241.286 9.61776C241.269 10.1564 241.467 10.6797 241.836 11.073Z" fill="#261A54"/>
</svg>
