<svg width="59" height="111" viewBox="0 0 59 111" fill="none" xmlns="http://www.w3.org/2000/svg">
<path fill-rule="evenodd" clip-rule="evenodd" d="M54.585 88.4373C63.1902 43.3389 61.384 37.4425 15.894 0.000394466L22.773 21.1829L23.7065 21.7385L56.2076 43.0359C56.8493 44.7601 57.3592 46.5305 57.733 48.3318L24.501 26.5633L28.8931 40.0599L28.9787 40.159L28.892 40.2338L37.2499 65.6071L55.3407 84.4568L54.585 88.4373ZM50.2406 110.688C51.7935 102.474 53.2399 95.2392 54.4657 88.7997L39.5966 73.3058L50.7749 107.827L50.2406 110.688ZM8.67716 72.8374C16.1595 83.2553 28.8475 93.6951 47.1499 108.234L26.4651 44.231L8.67716 72.8374ZM12.8916 2.35503C-2.1106 38.3676 -3.72331 52.6188 6.51447 69.4316L25.0009 39.6819L12.8916 2.35503Z" fill="#8CC886"/>
</svg>
