<svg width="55" height="40" viewBox="0 0 55 40" fill="none" xmlns="http://www.w3.org/2000/svg">
<path fill-rule="evenodd" clip-rule="evenodd" d="M12.8388 38.1718C38.8272 35.1319 41.7234 33.141 54.2924 2.00472L43.9547 9.36921L43.8124 9.97172L37.7969 31.2842C36.9695 31.9281 36.0944 32.5083 35.1791 33.0198L41.3256 11.2293L34.7403 15.9266L34.7011 15.9901L34.6456 15.9558L22.2829 24.8413L15.1319 37.9014L12.8388 38.1718ZM-0.000152038 39.6179C4.73036 39.0565 8.91101 38.6046 12.6214 38.169L18.4994 27.4346L1.64612 39.4189L-0.000152038 39.6179ZM13.4627 10.5464C9.07992 16.3966 5.57608 25.0805 0.804524 37.5179L32.0574 15.3205L13.4627 10.5464ZM52.4986 0.775577C30.3546 -1.21683 22.3316 0.345314 14.944 8.78786L34.2798 13.7461L52.4986 0.775577Z" fill="#8CC886"/>
</svg>
