<svg width="143" height="167" viewBox="0 0 143 167" fill="none" xmlns="http://www.w3.org/2000/svg">
<path fill-rule="evenodd" clip-rule="evenodd" d="M134.071 125.083C116.486 40.8982 109.118 32.0018 3.49652 0.000107027L30.6417 31.6794L32.6559 31.9681L104.193 45.401C106.544 47.9207 108.7 50.6151 110.643 53.4611L37.5032 39.7397L54.8147 59.918L55.034 60.0277L54.938 60.2195L87.6574 98.0812L132.512 117.655L134.071 125.083ZM142.576 166.688C139.348 151.367 136.641 137.814 134.125 125.795L97.258 109.705L141.441 161.357L142.576 166.688ZM43.4511 131.154C63.8902 143.783 93.3474 152.703 135.465 164.671L53.6186 68.8791L43.4511 131.154ZM-0.000419728 6.23339C-0.0189386 79.3108 7.45142 105.117 37.2593 126.821L47.8116 62.0662L-0.000419728 6.23339Z" fill="#8CC886"/>
</svg>
