<svg width="41" height="24" viewBox="0 0 41 24" fill="none" xmlns="http://www.w3.org/2000/svg">
<path fill-rule="evenodd" clip-rule="evenodd" d="M8.87376 23.7306C26.8479 24.4323 29.0269 23.3884 40.8777 3.57945L33.0726 7.48081L32.9119 7.87488L26.5578 21.7094C25.9273 22.0587 25.2711 22.3595 24.5951 22.6095L31.0891 8.46429L26.1165 10.9536L26.0832 10.9925L26.0491 10.9633L16.7069 15.6822L10.46 23.7911L8.87376 23.7306ZM-1.50997e-05 23.3461C3.27257 23.4684 6.16005 23.6065 8.7264 23.7055L13.8612 17.0407L1.13927 23.3862L-1.50997e-05 23.3461ZM12.238 5.0346C8.63868 8.54143 5.33462 14.0663 0.770025 22.0055L24.3589 10.2564L12.238 5.0346ZM39.7902 2.55371C24.9627 -1.15658 19.3474 -0.949621 13.4313 3.99795L26.0358 9.4236L39.7902 2.55371Z" fill="#8CC886"/>
</svg>
